<?xml version="1.0" encoding="utf-8"?>
<!-- Generator: Adobe Illustrator 16.0.0, SVG Export Plug-In . SVG Version: 6.00 Build 0)  -->
<!DOCTYPE svg PUBLIC "-//W3C//DTD SVG 1.1//EN" "http://www.w3.org/Graphics/SVG/1.1/DTD/svg11.dtd">
<svg version="1.1" id="Livello_1" xmlns="http://www.w3.org/2000/svg" xmlns:xlink="http://www.w3.org/1999/xlink" x="0px" y="0px"
	 width="260px" height="118px" viewBox="0 0 615 298.5" enable-background="new 0 0 615 298.5" xml:space="preserve">
<g>
	<path fill="#FFFFFF" d="M128.91,26.445C60.709,26.445,5.425,81.729,5.425,149.93S60.709,273.415,128.91,273.415
		c68.201,0,123.485-55.284,123.485-123.485S197.111,26.445,128.91,26.445z"/>
	<path fill="#00609D" d="M139.244,150.602c0-0.258,0-0.465,0.052-0.774c0,0,0.051-0.724,0.103-0.774
		c0.052-0.051,0.414,0.62,0.414,0.62c0,0.052,0.981,1.396,1.033,2.17c0,0.154-0.052,0.413-0.31,0.466
		c-0.103,0.051-0.207,0.051-0.31,0.051C139.605,152.357,139.244,151.688,139.244,150.602z M143.429,147.708
		c-0.155-0.672-1.705-2.325-1.912-2.222s0.051,2.479,0.361,2.842C142.447,149.154,143.583,148.38,143.429,147.708z M61.846,213.119
		c0.155-0.052,0.258-0.155,0.31-0.311c0.155-0.879,0.258-1.757,0.414-2.636c0.103-0.361,0.207-0.773,0.361-1.137
		c0.31-0.93,0.62-1.757,1.034-2.583c0.827-1.705,1.24-4.134,2.79-5.271c0.258-0.153,0.517-0.258,0.568-0.567
		c0.103-0.258,0-0.413-0.104-0.518c-0.104-0.052-0.258-0.052-0.414,0c-0.878,0.207-1.756,1.603-2.222,2.325
		c-0.31,0.465-2.015,2.738-2.17,2.842c-2.222,1.551-4.082,1.964-6.51,2.43c0.517,0.672,1.033,1.291,1.55,1.963c1.55,0,3.72,0,3.72,0
		c0.568,0,0.465,2.272,0.051,2.272c-0.103,0-0.981,0-1.756,0.053c0.517,0.567,1.033,1.137,1.55,1.652
		c0.104-0.104,0.258-0.154,0.362-0.207C61.691,213.171,61.846,213.119,61.846,213.119z M191.738,216.168
		c-6.562-2.479-11.677-19.117-13.589-20.357c-1.912-1.239,8.422,22.218,10.282,21.34c1.396-0.62,2.739-0.312,3.875,0.825
		c0.413-0.412,0.827-0.825,1.24-1.188C193.081,216.633,192.461,216.478,191.738,216.168z M184.607,191.832
		c-0.155-0.155-0.517-0.155-0.568,0.052c-0.207,1.085,6.562,6.51,9.61,8.215c2.17,1.188,4.598,2.223,4.856,5.994
		c0.104,1.498,0.465,3.255,0.878,4.599c2.273-2.636,4.392-5.373,6.355-8.268C200.263,201.907,192.978,199.428,184.607,191.832z
		 M150.456,143.678c0-0.154-0.052-0.361-0.155-0.517c-0.31-0.466-1.808-1.447-1.963-1.343c-0.155,0.103,0.104,1.808,0.724,2.375
		C149.784,144.711,150.456,144.092,150.456,143.678z M198.868,155.2c0,0-0.155,0.155-0.465,0.31c-0.258,0.155-0.62,0.311-0.93,0.361
		c-0.052-0.104-0.258-0.311-0.568-0.568c0.31-0.412,0.672-0.979,1.085-1.238c0.568-0.311,1.137-0.311,1.137-0.311
		c0.207-0.104,0.31-0.311,0.258-0.518c-0.052-0.207-0.31-0.311-0.517-0.258l0,0c0,0.051-2.118,0.723-2.997,2.323
		c-0.104,0.207,0,0.466,0.207,0.568c0.052,0.053,0.155,0.053,0.207,0.053c0,0,0,0,0.052,0l0,0c0.207,0.154,0.31,0.259,0.465,0.413
		c0.052,0.104,0.207,0.206,0.414,0.311c0.31,0.414,0.672,0.567,0.981,0.567l0,0c0.207,0,0.31-0.104,0.31-0.104l0.104-0.104
		l0.827-1.188c0.104-0.155,0.104-0.414-0.052-0.519C199.229,155.045,199.022,155.045,198.868,155.2z M221.963,149.93
		c0,3.668-0.258,7.234-0.671,10.799c-2.17-3.41-5.167-1.858-4.65-2.635c0.207-0.361,1.085-0.518,1.499-0.724
		c-0.362-0.981-1.292-2.532-2.428-1.964c1.446,0.982-3.204,2.945-5.425,5.012c-0.62,0.568-2.273,2.066-2.635,1.654
		c-1.24,0.412-2.119,4.185-2.842,6.148c-0.362,0.98-0.362,0.98-0.724,2.014c-0.31,0.828-0.775,2.171-0.981,3.41
		c-0.104,0.621,0.31,0.672,0.93,0.518c1.188-0.258,2.17-0.361,3.358-0.568c0.982-0.207,2.119-0.414,3.1-0.517l8.784-0.774
		c-0.362,1.445-0.775,2.894-1.188,4.34c0-2.944-0.93-3.049-0.93-3.049c-1.188-0.104-4.34-0.619-6.924,0.154
		c-0.981,0.311-0.671,2.48-0.93,3.359c-0.465,1.498-1.188,3.254-1.447,4.855c-0.052,0.258,0.517,0.775,0.362,0.981
		c-0.362,0.567-4.289-0.826-5.012-0.981c-1.86-0.311-4.34-0.93-6.2-0.98c-0.207,0-0.31,0.052-0.31,0.052
		c-0.052,0.154-0.052,0.258-0.104,0.773c-0.103,0.827-0.361,1.86-0.723,2.584c-0.258,0.567-0.827,0.931-0.104,1.344
		c0.568,0.311,1.188,0.517,1.757,0.774c1.343,0.62,12.555,4.186,13.227,4.133c0.827-0.052,1.344,0.104,1.809,0.155
		c-0.207,0.413-0.413,0.775-0.62,1.188c-0.207,0.052-0.413,0.052-0.723,0.104c-0.982,0.154-14.983-4.702-16.688-5.477
		c-3.1,0.31-2.739-1.188-6.872-2.119c0.258,0-2.015,0.052-2.687-0.104c-1.602-0.36-2.17-1.085-1.705-1.238l-8.577-1.396
		c0,0-0.31-0.052-0.362,0.312c-0.155,0.517-0.362,0.98-0.413,2.015c0,0.827,0.103,1.912,0.568,1.964
		c2.687,0.568,14.673,2.531,15.396,2.635c0.517,0.104,1.24,0.774,0.568,0.725c-0.671,0-7.905-0.568-8.835-0.725
		c-2.118-0.259-4.805,4.186-5.012,7.75c0,2.997-0.052,11.471-0.207,13.743c-0.104,2.17-0.414,3.41,0.62,3.823
		c2.48,0.207,6.148,4.702,11.832,7.285c-0.827,0.724-1.705,1.396-2.532,2.066l1.137-1.396c0,0-2.48-2.222-4.082-3.307
		c0,0.36,0.103,2.065-2.015,2.222s-2.325,2.222-2.325,2.222c-0.207,0.672,5.425,0.725,6.614,0.775
		c-15.707,12.038-35.289,19.22-56.627,19.22c-19.479,0-37.563-5.993-52.546-16.275c1.602-0.31,2.48-0.517,2.48-0.517
		c1.292-0.206,1.24-0.568,1.24-0.568c0-0.517-0.104-1.705-1.757-1.858c-0.878-0.104-5.425-0.518-5.425-0.518
		c-0.103-0.052,4.392-1.033,5.219-2.687c0.361-0.672,0.413-1.604,0.568-2.325c0.258-1.447,0.413-2.894,0.62-4.341
		c0.414-3.461,0.827-5.114,1.085-8.628c0.104-1.446,0.827-5.941,0.31-5.425c0-0.207-0.361,1.445-0.671,2.583
		c-0.362,1.396-0.775,2.894-1.188,4.288c-0.413,1.396-0.878,2.789-1.395,4.186c-1.033,2.738-2.273,5.425-4.03,7.802
		c-1.033,1.396-2.17,2.583-3.41,3.255c-0.517-0.413-1.034-0.878-1.499-1.292c1.24-0.465,2.532-1.55,3.772-3.203
		c1.602-2.117,3.048-4.96,4.288-7.854c2.273-5.321,3.668-10.644,3.875-11.418c1.757-6.097-1.24-7.233-3.461-7.079
		c-9.197,0.517-22.269,4.134-22.217,3.875c0.052-0.206,0.258-0.672,0.465-0.723c1.912-0.414,28.83-6.82,28.83-6.82
		s0.465-0.052,0.62-0.93c0.155-1.034,0.207-2.273,0.207-2.43c0-0.311-0.31-0.207-0.31-0.207s-9.352,2.738-10.643,2.997
		c-0.672,0.155-1.55,0.466-2.583,0.568c-0.362,0.052-1.24-0.104-1.292,0.052c-0.414,0.518-1.085,0.981-1.705,1.188
		c-1.137,0.413-10.695,3.203-11.418,3.409c-1.809,0.567-2.377,0.567-2.894,0.311l-0.155,2.842c0.155-0.052-3.048,0.931-5.167,1.705
		c-0.207-0.362-0.414-0.774-0.672-1.137c2.997-1.55,2.894-4.082,1.188-5.58c-2.118-1.705-5.27-4.134-6.097-9.197
		c-0.258-1.55-0.827-1.497-1.55-1.757c-0.362-0.051-0.672-0.051-0.878-0.104c-0.104-0.258-0.207-0.517-0.258-0.774
		c4.082-0.104,15.345-0.827,15.5-1.55c-0.568-2.066-0.568-6.305-3.048-8.525c-4.185-3.822-7.802-7.75-8.318-8.162
		c-0.878-0.156-4.03,1.756-3.152,2.272c0.62,0.36,2.48,0.517,2.738,1.291c-0.361,0.155-0.827-0.104-1.188-0.154
		c-1.602-0.312-4.03,0.981-5.529,2.687c-0.93-5.271-1.446-10.694-1.446-16.223c0-51.41,41.644-93.054,93.053-93.054
		C180.319,56.877,221.963,98.573,221.963,149.93z M68.201,157.629c-0.568-0.414-1.602-0.879-1.602-0.465
		c-0.207,0.826-0.31,1.238,0.414,1.809c0.413,0.31,1.033,0.465,1.292,0.877c0.207,0.312,0.362,0.879,0.414,1.24
		c0.207,1.033-0.155,2.43-0.724,3.256c-0.878,1.239-0.517,3.41-0.361,3.926c0.31,1.033-0.207,1.293-0.672,2.119
		c0.465,0.414,1.085,0.774,1.602,1.033c0.258,0.154,0.93,0.311,1.24,0.207c0.568-0.156,0.93-1.499,1.085-2.016
		c0.31-0.826,1.24-6.51,0.671-8.215C70.526,158.145,69.286,158.402,68.201,157.629z M67.271,163.725h0.103
		c1.034-1.238,0-4.547-1.446-3.307c0.155,0.621,0.723,0.879,0.981,1.447C67.219,162.434,67.167,163.105,67.271,163.725z
		 M47.844,157.268c0.052,0,0.775-0.414,0.827-0.414c0.465,0-0.207,0.672,0.207,0.621c0.517-0.053,1.602-0.363,2.17-0.467
		c0.723-0.104,0.62-0.051,0.465-0.773c-0.207-0.932-0.207-1.86,0.414-2.635c0.465-0.568,0.93-0.879,1.395-0.879
		c0.62,0,1.188,0.568,1.447,1.084c0.258,0.465,0.258,1.24,0.981,1.188c0.724,0,1.653-0.774,1.912-1.396
		c0.104-0.207,0.104-0.672,0.362-0.826c0.517-0.361,0.362,0.311,0.568,0.465c0.31,0.207,1.188-0.516,1.447-0.672
		c0.155-0.051,1.705-0.672,1.705-0.619c0-0.312,0-0.775,0.207-0.982c0.31-0.361,0.413-0.051,0.62,0.311s0.258,0.361,0.723,0.361
		c0.31,0,0.723,0.155,0.93,0.155c0.465-0.104,0.207-0.517,0.413-0.672c0.207-0.155,0.465,0.362,0.517,0.466
		c0.259,0.311,0.31,0.258,0.724,0.361c2.532,0.619,1.24-2.842,0.517-3.928c-1.085-1.549-2.687-2.893-4.392-3.668
		c-0.672-0.31-2.377-0.724-4.289-0.724c-0.981,0-1.292-0.207-2.325,0.052c-1.912,0.465-3.823,0.62-6.407,3.928
		c-0.723,0.93-1.137,2.635-1.446,3.771C47.121,153.34,48.412,155.355,47.844,157.268z M56.886,165.998
		c0.517,0.361,1.137,0.879,1.757,1.086c0.155,0.051,0.31,0.051,0.413,0.051c0.517-0.051,0.775-0.672,1.24-1.033
		c0.465-0.412,1.085-0.31,0.723-0.98c-0.155-0.26-0.62-0.518-0.258-0.827c0.414-0.31,1.085,0.414,1.447,0.104
		c0.104-0.104,0.104-0.207,0.104-0.361c0.051-0.311,0.207-0.723,0.413-0.98c0.155-0.156,0.362,0,0.414,0
		c0.517,0.205,0.981,0.567,1.24,0.517c0,0,0.568-0.052,0.672-1.498c0.155-0.827,0.258-1.705,0.362-2.532
		c0.051-0.518,0.155-1.033,0.155-1.498c0.052-0.518-0.104-1.085-0.62-1.292c-0.671-0.36-3.41-0.567-3.461-0.774
		c-0.052-0.207,0.155-0.414,0.361-0.414c0,0,0.31-0.051,0.775-0.051c0.827,0,2.066,0.104,2.997,0.724
		c0.052,0.052,0.671,0.517,0.671,0.259c0-0.104,0-0.259,0.052-0.361c0.258-0.621,0.414-1.447,0.155-2.066
		c-0.155-0.465-0.517-1.24-0.93-1.5c-0.362-0.205-0.827-0.153-1.188-0.205c-1.033-0.104-2.066-0.155-3.048,0.205
		c-0.827,0.312-1.085,0.673-1.653,1.293c-0.258,0.259-0.672,0.619-1.033,0.724c-0.465,0.104-0.672-0.207-1.033,0.312
		c-0.259,0.36-0.31,0.67-0.724,0.93c-0.413,0.258-0.981,0.413-1.447,0.413c-0.878-0.104-1.137-0.827-1.188-1.55
		c-0.104-0.672-0.568-1.344-1.344-0.879c-0.878,0.518-1.343,2.944-0.517,3.668c0.104,0.104,1.292,0.879,0.672,0.981
		c-0.672,0.104-1.085-0.774-1.809-0.723c-0.827,0.051-1.808,0.206-2.376,0.31c-0.93,0.104-0.878,0.155-1.705,0.62
		c-0.414,0.207-1.343,1.138-1.653,1.498c0.981,0.931,5.012,5.013,6.407,5.373c0.207,0.052,0.827-0.517,1.292-0.724
		C54.406,164.087,55.956,165.379,56.886,165.998z M69.544,184.186c0-0.052-0.155-1.396-0.672-2.117
		c-0.155-0.26-0.258-0.466-0.62-0.568c-0.413-0.104-0.827,0.052-1.24,0.104c-0.414,0.051-0.827,0.153-1.24,0.258
		c-0.981,0.207-1.963,0.413-2.945,0.672c-1.188,0.31-2.325,0.567-3.514,0.878c-1.033,0.259-2.066,0.414-2.945,1.033
		c-0.155,0.104-1.033,0.724-0.878,0.207c0.104-0.311,0.465-0.518,0.517-0.981c0.052-0.362-0.568-1.809-0.671-2.17
		c-0.258-0.774-0.104-3.204-0.414-3.565c-0.362-0.207-6.355,2.066-10.437,1.293c0.103,0.465,0.207,2.479,0.258,2.789
		c0.827,3.721,2.945,6.046,5.683,8.268c1.034,0.826,2.17,1.085,3.307,1.085c0.93,0,1.86-0.155,2.739-0.361
		c0.671-0.155,3.668-1.24,6.613-2.17c2.79-0.879,4.753-1.188,5.942-2.272C69.751,185.994,69.647,184.96,69.544,184.186z
		 M70.991,173.801c0.052-0.465,0.155-1.137-0.671-1.189c-1.137-0.103-2.48-0.825-3.462-1.445c-0.775-0.518-1.033-1.239-1.808-0.206
		c-0.517,0.774-0.878,1.651-1.343,2.479c-0.568,1.084-1.912,4.599-2.997,6.045c-0.568,0.724-1.292,1.964-1.602,2.79
		c-0.155,0.414,1.602-0.259,2.015-0.361c0.981-0.207,1.963-0.413,2.945-0.62c1.602-0.31,3.204-0.62,4.753-0.878
		C69.441,180.311,70.836,175.247,70.991,173.801z M78.379,183.101c-0.93-0.104-1.343-0.104-3.823-0.465
		c-0.775-0.104-1.499-0.207-2.273-0.361c-0.672-0.104-1.395-0.413-2.067-0.311c0.362,0.775,0.465,1.396,0.414,2.273
		c0,0.36-0.414,1.395-0.258,1.652c0.258,0.466,2.118,0.053,2.532,0c1.24-0.259,2.376-1.032,3.255-1.032
		c0.414,0,1.343,0.103,2.222-0.104c0.62-0.155,2.738-0.207,3.048-0.879C81.738,183.152,80.911,183.565,78.379,183.101z
		 M184.607,179.277c0.31-0.362,2.273-3.204,4.599-6.717l2.893-7.906c0.207-0.567,0.982-3.203,0.982-3.203
		c-2.119-0.412-5.684,3.721-6.717,7.441C185.124,173.025,184.711,177.624,184.607,179.277z M184.453,179.794
		c-0.155,0.206-0.258,0.724-0.052,0.931c0.31,0.311,0.517,0.051,0.775-0.156c0.878-0.517,2.067-0.567,3.048-0.723
		c0.827-0.154,2.067-0.259,2.532-1.084c0.104-0.156,0.827-2.791,1.188-2.637l-3.048-1.498c-0.207-0.104-1.809,2.583-2.067,2.945
		C186.984,178.813,184.969,179.02,184.453,179.794z M139.347,158.507c0.672-0.104,2.532-0.465,5.271-3.927
		c3.617-4.547,6.562-8.215,8.37-9.816c2.48-2.223-1.344-7.338-2.325-8.578c-0.155-0.154-1.137,0.775-1.809,0.672
		c-0.207,0.619-1.808,1.137-2.738,1.498c-0.62,0.207-1.447,0.672-1.808,0.931c0,0.052-0.258,0.774-1.034,0.981
		c-0.413,0.104-0.93-0.414-0.981-0.466c-0.362,0.052-0.568,0.103-1.188,0.31c-0.93,0.311-3.41,1.705-3.513,2.533
		c-0.104,0.826-0.414,3.15-0.465,7.75c0,0.879-0.31,1.653-1.86,1.859c-0.207,0.053-1.085,0.155-1.24,0.207
		c0.155,0.413,0.361,0.98,0.62,1.757c0.414,1.343,0.517,2.789,1.24,3.668c0.465,0.62,1.085,1.138,1.653,1.653
		c0.568,0.465,1.033,1.033,1.86,0.931c0.465-0.053,1.137-0.362,1.55-0.567c0.413-0.207,0.827-0.467,1.24-0.672
		c0.878-0.465,1.809-0.879,2.739-1.293c2.066-0.931,4.185-1.756,6.355-2.429c4.96-1.602,10.178-2.583,15.448-2.687
		c0.258,0,0.568,0,0.827,0c0.362,0,0.62,0.205,0.93,0.465c0-0.053,0-0.155,0-0.206c0-0.774,0.052-1.912,0.207-3.308
		c0-0.154,0.052-0.258,0.052-0.414c0-1.188-1.24-2.944-2.015-4.649c-0.723-1.603-1.033-2.376-0.981-2.944
		c0.052-0.621,0.62-1.138-0.31-0.931c-0.672,0.155-1.292,0.517-1.809,0.827c-2.066,1.137-3.771,2.79-5.373,4.495
		c-2.119,2.222-4.082,4.547-5.942,7.026c-0.104,0.104-0.155,0.207-0.258,0.311c-0.155,0.154-0.723,0.93-0.878,0.568
		c-0.104-0.26,0.62-1.24,0.775-1.446c2.325-3.824,4.237-5.839,7.13-8.577c0.258-0.258,0.723-0.518,0.981-0.827
		c1.085-1.292-3.255,0.413-5.063,1.447c-3.978,2.325-12.4,16.637-16.275,14.62C138.159,158.92,138.882,158.559,139.347,158.507z
		 M122.968,150.137L122.968,150.137c0.672,0.775,2.79,1.653,4.857,1.758c0.517,0,2.893-0.053,4.392-0.207
		c0.258-0.053,2.583-0.311,3.1-0.414c0.878-0.154,0.93-0.93,0.93-0.93c0.103-1.447,0.155-3.049,0.155-4.806
		c0-1.498-0.052-3.101-0.104-4.702c0,0-0.62-8.008-1.292-11.057c-0.052-0.258,0.413-0.518,0.672-0.62
		c0.103-0.052,0.207,0.155,0.258,0.414c0.051,0.31,0.155,0.671,0.207,0.981c1.602-0.931,3.668-3.359,3.875-4.031
		c0,0.156,0.104,0.311,0.052,0.465c-0.465,1.447-2.997,3.669-3.772,4.341c0.465,2.583,0.775,5.478,0.93,8.422
		c0.258-0.104,0.62-0.207,0.93-0.31c0.465-0.155,0.465-0.155,0.465-0.155h0.052c0,0,0.517-0.104,1.033-0.207
		c0.517-0.104,1.188-0.259,1.188-0.259c0.258-0.104,0.671-0.207,1.033-0.311c-0.155-0.465-0.413-1.188-0.775-2.015
		c-0.724-1.55-1.809-3.41-3.514-4.96c0,0-0.155-0.672,0-0.568c2.532,1.344,4.909,6.252,5.322,7.492
		c0.052,0.052,2.015-1.085,3.1-1.499c0.878-0.31,3.668-1.603,3.668-1.603s1.137-0.619,0.93-1.033
		c-0.155-0.258-0.568-0.827-0.827-1.24c-0.568-0.827-1.447-2.016-2.377-3.048c-1.912-1.963-4.495-3.875-6.458-4.289l-0.207-0.103
		c-0.827-0.568-2.17-1.345-2.48-1.447c-0.052,0-0.155,0-0.207,0c-0.207,0-0.465,0.207-0.62,0.361l-0.362,0.414
		c-0.413,0.414-0.827,0.877-1.033,1.137c-0.62,0.672-2.79,2.842-6.252,2.842c-1.602,0-3.513-0.62-5.115-1.499
		c-1.602-0.931-2.945-2.015-3.048-3.565v-0.052c-0.31,0-2.222,0.517-2.997,0.827c-2.583,1.085-9.455,4.393-10.747,7.854l0,0
		c0,0.104-0.052,0.155-0.052,0.207c0.052,0.053,0.052,0.053,0.104,0.104c0.465,0.465,1.808,1.653,2.583,2.325
		c0.671,0.619,2.376,1.705,2.841,1.756c0.104,0,0.207,0,0.258,0c0.155,0,0.31-0.053,0.568-0.053c0.052,0,0.104,0,0.207,0
		c0.413-1.342,1.756-4.494,4.65-7.182c0.207-0.154,0.775-0.31,0.827-0.052c0,0-2.428,2.119-3.771,5.374
		c-0.414,0.982-0.724,1.757-0.878,2.17c0,0,0.051,0,0.051,0.053c0.568,0.413,0.827,0.516,1.654,0.672
		c0.827,0.154,2.48,0.412,2.893,0.517c0.982,0.207,1.809,1.343,1.86,0.723c0.051-3.307,0.207-6.458,0.361-8.008
		c-0.775-0.62-3.565-2.894-3.41-4.599c0.207,0.672,1.963,2.842,3.514,3.72c0.052-0.259,0.103-0.413,0.362-0.31
		c0.258,0.104,0.568,0.361,0.568,0.567c-0.103,0.827-0.465,11.832-0.465,12.813C122.555,146.727,122.71,149.723,122.968,150.137z
		 M143.17,81.729c0.052-0.31,0-0.412,0.207-0.619c-0.723,0.104-1.033,0.774-1.55,1.188c-0.259,0.207-1.292,0.465-1.395,0.672
		l-0.052,0.104l0.052,0.104c0.155,0.311,0.517,0.672,1.24,0.672c0.672,0,1.602-0.31,2.687-0.877
		c0.414-0.207,0.878-0.725,1.344-0.828c0.517-0.154,1.033,0.104,1.498,0.104c0.052-0.98-1.085-1.395-1.912-1.395
		S143.79,81.212,143.17,81.729z M140.07,87.309c-0.724,0.518-0.93,1.81-0.93,1.86l-0.052,0.414l0.362-0.207
		c0.362-0.207,0.724-0.31,1.137-0.31c0.362,0,0.723,0.052,1.085,0.103c0.465,0.052,0.93,0.155,1.447,0.155
		c0.31,0,0.568,0,0.878-0.053c0.568-0.104,0.878-0.517,1.188-0.93c0.258-0.31,0.465-0.671,0.827-0.775
		c0.103-0.051,0.207-0.051,0.31-0.051c0.362,0,0.672,0.258,1.034,0.672c0.465,0.517,1.085,0.774,1.963,0.774l0,0
		c0.671,0,1.447-0.155,2.118-0.258c0.517-0.104,0.982-0.207,1.343-0.207l-0.052-0.414c-0.103,0-0.258,0-0.361,0
		c-1.188,0-2.377-0.36-3.358-0.981c-0.207-0.104-0.362-0.31-0.517-0.465c-0.258-0.259-0.465-0.517-0.827-0.672
		c-0.258-0.104-0.465-0.154-0.775-0.154c-0.671,0-1.24,0.31-1.602,0.567c-0.155,0.104-0.258,0.207-0.413,0.31
		c-0.465,0.362-0.93,0.672-1.499,0.672c-0.104,0-0.207,0-0.362-0.051c-0.207-0.053-0.361-0.104-0.517-0.156
		c-0.465-0.154-0.878-0.258-1.292-0.258C140.845,86.947,140.432,87.051,140.07,87.309z M151.127,95.886
		c-0.671-0.206-1.24-0.206-1.757-0.258c-0.723-0.052-1.292-0.052-2.222-0.517c-0.155-0.053-0.258-0.155-0.361-0.258
		c-0.207-0.207-0.258-0.465-0.362-0.724c-0.104-0.517-0.258-1.137-1.499-1.446c-0.258-0.104-0.465-0.104-0.671-0.104
		c-0.672,0-1.188,0.31-1.55,0.62c-0.258,0.154-0.517,0.361-0.723,0.361c-0.052,0-0.104,0-0.155,0
		c-0.414-0.104-0.827-0.619-1.24-1.137c-0.568-0.672-1.137-1.395-1.912-1.395c-0.104,0-0.258,0-0.362,0.052
		c-0.362,0.103-0.62,0.413-0.723,0.774c-0.104,0.311-0.052,0.568,0.155,0.775c0.258,0.258,0.517,0.414,0.775,0.518
		c0.207,0.104,0.362,0.154,0.517,0.31c0.207,0.155,0.361,0.362,0.517,0.62c0.207,0.258,0.361,0.518,0.671,0.723
		c0.465,0.362,0.982,0.568,1.499,0.568c0.207,0,0.413-0.053,0.62-0.104c0.207-0.052,0.413-0.154,0.671-0.258
		c0.31-0.154,0.672-0.31,0.982-0.31c0.103,0,0.155,0,0.258,0.051c0.517,0.207,0.93,0.724,1.292,1.188
		c0.31,0.361,0.517,0.672,0.775,0.774c0.62,0.31,1.137,0.414,1.654,0.414c0.723,0,1.395-0.258,2.222-0.567
		c0.258-0.104,0.568-0.207,0.878-0.311l0.62-0.207L151.127,95.886z M136.454,76.77c-1.395-0.518-3.72-0.053-6.717,1.602
		c0,0-1.55-2.273-5.115-2.118c0,0-5.27,0.36-4.856,6.511c0.361,5.219,9.662,13.949,9.662,13.949c0.258,0.311,0.62,0.311,0.878,0
		c0,0,8.164-7.595,9.197-13.949C139.864,81.006,139.502,77.958,136.454,76.77z M132.527,116.811c0,4.6-2.635,9.25-5.528,9.25
		c-1.137,0-2.325-0.828-2.532-0.828c-0.258,0.053-0.672,0.466,0.775,1.24c1.447,0.775,3.255,1.344,4.495,1.344
		c2.842,0,4.96-1.81,5.477-2.377c0.258-0.311,0.414-0.568,0.62-0.931c0.414-0.724-0.93-0.207-1.137-0.104
		c-0.31,0.156-0.827,0.414-1.033,0.725c0.155-0.207-0.517,0.671-0.155-2.119c0.258-2.324,0.207-4.65-0.155-8.06
		c-0.104-0.724-0.827-1.603-0.981-2.325c-0.155-0.827-0.568-1.602-1.085-2.273c-0.207-0.31-0.413-0.619-0.62-0.877
		c-0.258-0.363-0.672-0.518-1.034-0.775c-0.568-0.413-1.085-0.775-1.602-1.24c-0.465-0.414-0.981-0.258-1.447-0.518
		c-0.517-0.31-0.723-0.517-1.395-0.567c-0.258,0-0.62,0-0.827-0.155c-0.31-0.154-0.31-0.207-0.671-0.154
		c-0.568,0.103-1.034,0.052-1.602,0c-0.981-0.155-1.963,0.31-2.893,0.465c-0.258,0.052-0.568,0.104-0.827,0.154
		c-0.362,0-0.414-0.104-0.568,0.207c-0.258,0.414-0.362,0.879-0.672,1.344c-0.362,0.567-0.31,1.084-0.413,1.757
		c-0.104,0.567-0.362,1.085-0.414,1.704c-0.052,0.621,0.155,1.138,0.207,1.705c0.052,0.568,0.104,1.137,0.258,1.653
		c0.052,0.207,0.155,0.568,0.362,0.724c0.258,0.207,0.207,0,0.414-0.258c0.413-0.518,1.033-0.879,1.653-1.086
		c0.361-0.104,1.602-0.517,1.963-0.154c0.62,0.619,1.137,1.24,1.55,2.066c0.207,0.413,0.517,1.24,0.414,1.758
		c-0.258-0.207-0.362-0.879-0.517-1.24c-0.258-0.672-0.775-1.5-1.446-1.809c-0.465-0.207-1.395,0-1.86,0.155
		c-0.62,0.207-1.343,0.517-1.602,1.188c0,0.051,0.981,1.652,1.912,2.789c0.724,0.931,1.55,1.86,2.015,2.377
		c1.447,1.498,3.513,2.17,5.063,2.17c5.322,0,5.373-6.769,5.373-6.769c0-0.414,0.052-0.827,0-1.292c0,0,0-0.465,0.207-0.465
		c0.258,0,0.31,0.775,0.31,0.775C132.527,116.346,132.527,116.811,132.527,116.811z M136.092,112.059
		c-0.052-0.156-0.104-0.259-0.155-0.414c-0.465-1.498,0-2.789-0.62-4.34c-0.672-1.652-1.86-3.255-3.255-3.978
		c-1.395-0.724-1.499-0.981-2.687-1.912c-1.653-1.292-3.617-1.756-5.632-1.756c-2.48,0-4.288,1.085-6.355,2.222
		c-3.927,2.118-4.34,6.458-3.1,10.333c0.104,0.361,0.362,1.86,0.724,2.583c0.207,0.413,1.085,1.24,1.55,1.344
		c0-0.363-0.362-0.775-0.517-1.086c-0.155-0.361-0.207-0.724-0.207-1.188c0-0.414-0.052-0.725-0.207-1.137
		c-0.103-0.258,0.052-0.981-0.051-1.086c-0.258,0.104-0.517,0.568-0.775,0.518c-0.103-0.413,0.362-0.672,0.62-0.827
		c0.207-0.155,1.24-1.653,0.827-1.86c-0.155-0.104-0.568,0.207-0.723,0.258c-0.155,0.052-0.465,0.052-0.362-0.207
		c0.052-0.154,0.517-0.154,0.672-0.207c0.517-0.206,0.517-0.723,0.775-1.084c0.155-0.207,0.258-0.311,0.258-0.568
		s0-0.465,0.052-0.723c0.052-0.311,0.103-0.672,0.155-1.034c0.052-0.671,0-2.118,0.982-2.17c0.052,0.465-0.362,1.446-0.052,1.86
		c0.362,0.465,1.86-0.104,2.376-0.26c0.517-0.103,2.532-1.136,2.532-1.188c0.155-0.155,0.258-0.362,0.414-0.207
		c0.155,0.154,0.155,0.412-0.052,0.568c-0.155,0.154-0.31,0.258-0.465,0.414c-0.155,0.104-0.62,0.258-0.62,0.412
		c0.465,0.053,0.827-0.207,1.292-0.31c0.465-0.104,0.982,0.103,1.395-0.207c0.104-0.103,0.207-0.361,0.362-0.361
		c0.258,0,0.207,0.466,0.104,0.62c-0.207,0.361-0.827,0.207-1.034,0.568c0.517-0.051,1.344-0.104,1.86,0.154
		c0.413,0.207,0.723,0.62,1.24,0.568c0.207,0,0.362-0.154,0.568-0.207c0.31-0.052,0.62,0.104,0.878,0.207
		c0.258,0.104,0.465,0.258,0.827,0.207c0.207-0.053,0.517-0.311,0.723,0c0.414,0.723-1.033,0.62-1.292,0.775
		c-0.052,0.052-0.103,0-0.207,0.052c0,0.207,0.62,0.414,0.775,0.517c0.207,0.155,0.568,0.568,0.775,0.568
		c0.414,0,1.395,0.154,2.583-0.311c0.207-0.052,0.207,0.414,0.052,0.568c-0.207,0.258-0.517,0.361-0.775,0.361
		c-0.155,0-0.827,0.104-1.085,0.156c0.568,0.567,1.136,1.652,1.343,1.963c0.052,0.154,0.361,1.033,0.775,1.447
		c0.878,1.342,1.55,2.17,0.93,4.236C135.782,117.068,136.712,113.918,136.092,112.059z M119.61,93.199
		c-0.31,0.361-0.775,0.412-1.292,0.412h-0.155c-0.361,0-0.775,0-1.085,0.156c-0.568,0.207-0.671,0.619-0.827,1.137
		c-0.207,0.517-0.31,0.775-0.568,1.137c-0.052,0.104-0.103,0.154-0.207,0.258s0.878,0,0.981-0.104
		c0.362-0.207,0.517-0.62,0.878-0.775c0.104-0.052,0.258-0.052,0.414-0.052c0.103,0,0.207,0,0.31,0s0.207,0,0.31,0
		c0.258,0,0.62-0.052,0.93-0.259c1.137-1.032,1.809-1.239,2.222-1.239c0.568,0,0.724,0.413,0.724,0.413l0.103,0.258l0.207-0.155
		c0.103-0.052,0.207-0.206,0.258-0.465c0.052-0.723-0.62-2.118-1.137-2.635c-0.31-0.31-0.568-0.466-0.827-0.466
		c-0.568,0-0.775,0.775-0.878,1.5C119.816,92.684,119.713,93.096,119.61,93.199z M119.3,87.516
		c-0.052-0.207-0.155-0.723-0.775-0.723c-0.104,0-0.155,0-0.258,0.053c-0.465,0.051-0.93,0.361-1.343,0.67
		c-0.31,0.207-0.568,0.362-0.724,0.414c-0.103,0.053-0.258,0.053-0.413,0.053c-0.258,0-0.517-0.053-0.827-0.104
		s-0.62-0.104-0.982-0.104c-0.413,0-0.775,0.104-1.085,0.259c-0.827,0.413-1.188,1.653-1.395,2.583
		c-0.103,0.414-0.207,0.826-0.31,0.93c-0.155,0.155-0.723,0.207-1.188,0.258c-0.775,0.104-1.55,0.155-1.912,0.518
		c-0.62,0.619-0.878,1.705-0.878,1.757l0.413,0.103c0-0.051,0.414-0.878,1.809-1.033c0.207,0,0.413,0,0.568,0
		c0.31,0,0.465,0.053,0.62,0.104c0.155,0.052,0.31,0.103,0.568,0.103c0.207,0,0.414,0,0.724-0.103
		c1.033-0.155,1.292-1.343,1.55-2.325c0.155-0.619,0.31-1.137,0.568-1.498c0.207-0.207,0.31-0.259,0.414-0.259
		c0.258,0,0.517,0.207,0.878,0.414c0.31,0.207,0.62,0.414,0.981,0.567c0.155,0.053,0.258,0.053,0.414,0.053
		c0.62,0,1.085-0.465,1.55-0.878c0.258-0.207,0.465-0.414,0.672-0.568C119.455,88.395,119.352,87.773,119.3,87.516z M151.024,80.954
		c-0.672,0-1.344,0.258-1.757,0.567c-0.258,0.155-0.465,0.414-0.672,0.621c-0.31,0.36-0.671,0.723-1.085,0.774
		c-0.103,0-0.155-0.052-0.258-0.104c-0.104-0.103-0.258-0.207-0.517-0.207h-0.155v0.155c-0.052,0.414,0.775,0.827,1.085,0.931
		c0.207,0.052,0.361,0.052,0.517,0.052c1.498,0,2.325-1.757,3.823-1.757c0.155,0,0.362,0.052,0.517,0.104l0.568,0.207l-0.362-0.518
		C152.315,81.264,151.747,80.954,151.024,80.954z M143.429,75.684c-0.155,0.155-0.258,0.311-0.414,0.518
		c-0.207,0.154-0.413,0.258-0.671,0.31c-0.104,0-0.258,0-0.362,0h-0.465c-0.31,0-0.672,0.052-1.034,0.259
		c-0.413,0.258-0.671,0.774-0.62,1.239c0.051,0.362,0.258,0.62,0.62,0.673c0.207,0.051,0.465,0.104,0.672,0.104
		c0.775,0,1.499-0.362,2.222-1.034c0.155-0.155,0.31-0.36,0.465-0.567c0.465-0.518,0.878-1.086,1.55-1.086
		c0.207,0,0.413,0.053,0.62,0.053c0.207,0.052,0.465,0.052,0.671,0.052h0.104c0.465,0,2.376-0.31,2.48-1.343l-0.414-0.053
		c0,0-0.103,0.104-0.671,0.104c-0.672,0-1.602-0.155-2.273-0.207c-0.414-0.052-0.723-0.103-0.982-0.103l0,0
		C144.204,74.754,143.79,75.219,143.429,75.684z M138.83,72.17c0,0.053-0.052,0.104-0.052,0.155
		c-0.051,0.103-0.465,0.413-0.878,0.671c-1.344,0.982-2.325,1.809-2.325,2.429c0,0.155,0.104,0.31,0.258,0.413
		c0.155,0.104,0.31,0.155,0.568,0.155c0.465,0,1.033-0.155,1.292-0.31c0.362-0.207,0.517-0.518,0.62-0.775
		c0.155-0.26,0.258-0.465,0.517-0.62c0.104-0.052,0.258-0.155,0.414-0.207c0.568-0.31,1.292-0.671,1.395-1.446
		c0.052-0.414-0.155-1.033-0.362-1.705c-0.155-0.465-0.362-1.188-0.31-1.343c0.258-0.207,0.62-0.207,0.93-0.207
		c0.517-0.051,1.085-0.051,1.498-0.62c0.259-0.361,0.31-0.93,0.362-1.395c0-0.207,0.052-0.414,0.104-0.62
		c0.052-0.206,0.103-0.465,0.103-0.672c0.052-0.517,0.155-0.981,0.362-1.396l0.052-0.154l-0.104-0.207h-0.155
		c-0.052,0-0.155,0-0.517,0.465s-0.62,0.98-0.775,1.447c-0.052,0.154-0.104,0.36-0.155,0.567c-0.155,0.62-0.31,1.138-0.878,1.396
		c-0.258,0.103-0.517,0.103-0.775,0.103c-0.465,0-1.033,0.052-1.447,0.62c-0.465,0.672-0.207,1.343,0.052,1.963
		C138.83,71.344,139.037,71.757,138.83,72.17z M131.08,74.909c0.104,0.413,0.465,0.62,0.878,0.62c0.207,0,0.413-0.051,0.568-0.155
		c0.568-0.362,0.62-1.138,0.62-1.705c0-0.207,0-0.414,0.051-0.567c0.052-0.362,0.465-0.672,0.878-1.033
		c0.568-0.465,1.24-0.982,1.137-1.86c-0.103-0.671-0.31-1.085-0.465-1.396c-0.155-0.31-0.31-0.517-0.258-0.93
		c0-0.154,0.413-0.154,0.775-0.207c0.672-0.052,1.499-0.104,2.015-0.724c0.413-0.517,0.465-1.24,0.258-2.325
		c-0.517-2.066-2.015-2.841-2.222-2.841h-0.104l-0.052,0.103c-0.051,0.104,0,0.207,0.155,0.465c0.31,0.465,1.085,1.756,0.878,2.791
		c-0.104,0.517-0.62,0.619-1.499,0.723c-0.827,0.104-1.757,0.207-1.963,1.137c-0.155,0.878,0.052,1.447,0.258,2.016
		c0.155,0.465,0.31,0.877,0.207,1.342c-0.104,0.361-0.414,0.672-0.827,1.033C131.545,72.119,130.563,73.102,131.08,74.909z
		 M129.479,62.715c0,0.775-0.62,1.24-1.24,1.809c-0.723,0.621-1.447,1.188-1.447,2.223c0,1.292,0.465,1.498,1.034,1.652
		c0.361,0.104,0.62,0.156,0.62,0.981c0,0.517-0.207,1.034-0.465,1.55c-0.258,0.568-0.517,1.188-0.517,1.86
		c0.052,1.188,0.827,2.17,2.17,2.737l0.207,0.053l0.103-0.155c0.207-0.362,0-0.774-0.155-1.085
		c-0.052-0.104-0.104-0.207-0.104-0.311c-0.155-0.516-0.207-1.033-0.207-1.549c0-0.828,0.258-1.188,0.568-1.603
		s0.62-0.878,0.62-1.757c0-0.98-0.568-1.344-1.085-1.705c-0.413-0.258-0.671-0.465-0.671-0.827c0-0.31,0.362-0.62,0.723-0.981
		c0.827-0.723,1.912-1.704,1.085-3.822c-1.137-2.067-2.687-2.532-2.997-2.532h-0.052l-0.155,0.052l-0.052,0.104
		c-0.052,0.154,0.052,0.207,0.258,0.414C128.135,60.287,129.479,61.477,129.479,62.715z M121.832,68.916
		c0.31,0.104,0.62,0.207,0.62,0.311c0.052,0.361-0.155,0.723-0.414,1.137c-0.207,0.412-0.517,0.878-0.62,1.447
		c-0.104,0.619,0.31,0.93,0.671,1.239c0.465,0.362,0.878,0.724,0.724,1.653c0,0.104,0,0.207,0.103,0.311
		c0.207,0.206,0.672,0.309,1.034,0.309c0.517,0,0.878-0.206,0.981-0.516c0.62-1.5-0.207-2.016-0.827-2.326
		c-0.31-0.154-0.62-0.31-0.672-0.619c-0.103-0.414,0.155-0.879,0.414-1.396c0.31-0.62,0.672-1.344,0.517-2.118
		c-0.155-0.775-0.93-1.086-1.602-1.293c-0.62-0.207-1.137-0.414-1.24-0.878c-0.207-0.827,0.258-1.757,0.414-2.17
		c0.103-0.207,0.155-0.31,0.052-0.414l-0.052-0.104h-0.104c-0.258,0-1.188,0.567-1.705,2.272
		C119.507,68.244,120.953,68.657,121.832,68.916z M113.823,69.122c0.517,0.31,1.085,0.672,1.395,1.603
		c0.207,0.619,0.155,1.239,0.104,1.859c-0.052,0.827-0.104,1.652,0.413,2.223c0.465,0.567,1.033,0.567,1.55,0.619
		c0.775,0,1.602,0.053,2.428,1.602l0.103,0.156l0.155-0.052c0.362-0.155,0.62-0.414,0.672-0.724c0.155-0.568-0.362-1.24-0.672-1.551
		c-0.465-0.517-0.775-0.672-1.809-1.137l-0.465-0.258c-0.672-0.361-0.672-0.518-0.568-1.085c0.052-0.567,0.207-1.446-0.568-2.842
		c-0.517-0.931-1.24-1.188-1.912-1.343c-0.568-0.155-1.033-0.311-1.395-0.879l-0.31-0.465l-0.104,0.518
		C112.687,68.451,113.255,68.761,113.823,69.122z M108.191,77.802c0.672,0.878,1.343,1.292,2.015,1.292
		c0.568,0,1.033-0.31,1.395-0.568c0.207-0.154,0.362-0.258,0.568-0.258c0,0,0,0,0.052,0c0.31,0.207,0.517,0.621,0.671,1.033
		c0.155,0.413,0.362,0.879,0.724,1.344c0.413,0.465,0.878,0.723,1.395,0.723c0.361,0,0.723-0.104,1.085-0.207
		c0.31-0.104,0.671-0.155,0.981-0.155c0.362,0,0.62,0.103,0.878,0.413c0.052,0.052,0.155,0.104,0.258,0.104
		c0.258,0,0.568-0.31,0.724-0.567c0.258-0.466,0.258-0.878,0.103-1.188c-0.413-0.723-0.981-1.033-1.756-1.033
		c-0.465,0-0.982,0.104-1.395,0.259c-0.362,0.103-0.672,0.207-0.93,0.207c-0.104,0-0.207,0-0.258-0.052
		c-0.31-0.155-0.414-0.414-0.517-0.879c-0.104-0.517-0.258-1.137-0.982-1.498c-0.155-0.104-0.362-0.104-0.517-0.104
		c-0.414,0-0.827,0.207-1.24,0.465c-0.413,0.259-0.827,0.466-1.292,0.466c-0.31,0-0.568-0.104-0.878-0.311
		c-0.775-0.518-1.085-0.672-1.292-0.672c-0.104,0-0.207,0.052-0.258,0.154C107.623,76.82,107.675,77.079,108.191,77.802z
		 M105.195,87.413l0.362-0.414c0,0,0.723-0.827,1.446-0.827c0.052,0,0.104,0,0.155,0c0.31,0.053,0.671,0.258,0.981,0.465
		c0.414,0.258,0.827,0.568,1.344,0.568c0.155,0,0.258-0.051,0.413-0.051c0.568-0.207,0.827-0.62,1.033-0.982
		c0.207-0.311,0.362-0.62,0.775-0.93c0.155-0.104,0.31-0.155,0.465-0.155c0.362,0,0.775,0.31,1.137,0.567
		c0.258,0.207,0.517,0.414,0.775,0.466c0.362,0.155,0.723,0.207,1.137,0.207c1.395,0,2.738-0.827,3.307-1.345
		c0.362-0.31,0.31-0.67,0.258-0.826c-0.155-0.413-0.775-0.775-1.137-0.775c-0.155,0-0.258,0.104-0.413,0.258
		c-0.258,0.207-0.672,0.568-1.447,0.568s-1.86-0.361-3.1-1.033c-0.155-0.104-0.31-0.104-0.465-0.104
		c-0.62,0-1.188,0.568-1.653,1.084c-0.104,0.104-0.207,0.207-0.31,0.311c-0.155,0.155-0.31,0.311-0.414,0.465
		c-0.207,0.258-0.258,0.311-0.465,0.311c-0.052,0-0.104,0-0.155,0c-0.103,0-0.207-0.051-0.361-0.051
		c-0.414-0.104-1.034-0.207-1.55-0.207c-0.465,0-0.827,0.052-1.085,0.207c-0.93,0.465-0.981,1.652-0.981,1.705L105.195,87.413z
		 M102.457,140.63c4.753,2.894,15.604,10.437,23.818,16.999c0-0.053,0.052-0.053,0.052-0.104c0.052-0.155,0.155-0.361,0.258-0.672
		c0.155-0.568,0.362-1.24,0.465-1.963c0.155-0.828,0.31-1.603,0.414-2.119c-2.17-0.207-4.289-0.981-5.27-2.066
		c-0.258-0.311-0.258-0.568-0.362-1.033c-0.052-0.414-0.103-0.982-0.155-1.602c-0.052-0.981-0.104-2.223-0.104-3.565
		c0,0,0-1.499-0.31-2.583c-0.361-1.033-3.307-2.48-4.805-2.738c-0.878-0.154-1.395-0.31-2.015-0.826
		c-0.207-0.155-0.207-0.104-0.31-0.155c-0.104,0-0.258,0.051-0.568,0.051c-0.155,0-0.31,0-0.517-0.051
		c-1.085-0.207-2.583-1.292-3.462-2.067c-0.568-0.517-1.499-1.343-2.118-1.912c-0.155,0.207-0.31,0.362-0.568,0.62
		c-0.827,0.724-1.188,2.429-2.067,3.41C104.058,139.08,102.87,139.751,102.457,140.63z M99.15,149
		c1.912,0.052,12.193,0.413,22.888,6.355c-6.613-5.115-23.612-15.449-23.664-15.449C98.323,139.906,97.858,143.73,99.15,149z
		 M86.956,162.484c6.665-1.603,13.434-3.875,18.342-3.875c15.5,0,22.786,7.854,26.299,11.367c0.465,0.518,2.429,0.465,2.79,0.053
		c0.258-0.26,0.775-1.189,2.119-2.377c1.188-0.982,14.157-12.351,30.742-12.4c0.465,0,0.672,0.93,0.672,0.93s-1.343,0-1.705,0
		c-16.637,0.465-28.934,12.245-30.07,13.33c-0.104,0.104,19.324-9.713,35.444-9.713c-0.052-0.053-0.878-1.809-0.93-1.859
		c0-0.053-2.015-3.617-2.997-4.289c-0.104-0.104-0.207-0.104-0.207-0.104c-18.239,0-33.17,11.314-33.429,11.521
		c-0.672,0.517-0.982,0.36-1.395,0c-0.155-0.154-8.319-9.301-19.634-12.606c-3.979-0.931-10.437-2.272-15.655-2.429
		c-2.945-0.053-4.34,1.292-4.805,1.963C92.536,152.255,86.75,162.537,86.956,162.484z M169.779,150.447
		c-0.051,0.878-0.413,1.705-0.517,2.582c-0.155,1.188,0.155,1.24,0.775,2.119c0.982,1.344,1.705,3.254,1.757,3.254
		c0,0,0.982-3.875,1.292-5.217c0.052-0.155,0.052-0.362,0.052-0.621c0-2.066-1.343-6.148-1.705-7.078
		c-0.723,0.361-1.24,0.568-2.066,0.568c0.103,1.084,0.31,2.066,0.362,3.203C169.779,149.672,169.779,150.033,169.779,150.447z
		 M162.339,215.909c0.62,0.104,2.273,0.567,4.082,0.567c1.55,0,3.048,0.104,5.012-0.465c0,0,0,0.258,0-0.36
		c0-0.62-0.775-1.034-0.775-1.034s0.672-39.525,0.672-39.887c0.052-1.24,0.052-2.531-0.827-2.377c-0.104,0-2.945,0.465-3.979,0.465
		c-1.653,0-2.894-0.258-3.565-0.311c-0.827-0.104-1.24,0.104-1.24,0.465C161.719,173.438,162.391,214.824,162.339,215.909z
		 M171.587,167.549c0-0.259,0-0.568-0.052-0.879c-0.362-2.324-2.376-3.926-5.374-3.926c-2.945,0-5.373,2.271-5.373,4.598
		c0,2.066,0.568,2.945,1.343,3.463c0.827,0.465,2.118,0.516,3.565,0.516c0.155,0,0.258,0,0.413,0c1.396,0,2.79-0.258,3.772-0.825
		C170.967,169.873,171.587,168.995,171.587,167.549z M112.945,162.744c0.155-0.311,1.033-0.775,0.723-1.034
		c-0.568-0.517-1.498,0.517-2.015,1.034c-0.568,0.568-1.292,1.084-2.015,1.549c-0.104,0.053-1.343,0.827-1.292,0.361
		c0.878-0.723,1.756-1.291,2.531-2.117c0.568-0.568,1.499-1.188,2.119-1.654c0.362-0.31,0.258-0.723-0.517-0.568
		c-0.465,0.104-0.62,0.26-0.775,0.362c-0.827,0.466-1.344,1.085-2.015,1.653c-0.568,0.465-1.137,0.879-1.757,1.24
		c-0.31,0.154-0.878,0.619-1.24,0.517c-0.878-0.155,0.981-1.137,1.188-1.292c0.517-0.413,1.034-0.775,1.55-1.188
		c0.413-0.312,0.775-0.726,1.24-0.982c0.207-0.154,0.878-0.258,0.827-0.62c-0.052-0.31-0.671-0.259-0.878-0.206
		c-0.827,0.104-1.446,0.465-2.118,0.981c-1.343,0.981-2.79,1.396-4.03,2.118c-0.414-0.207,1.085-0.981,1.24-1.963
		c0.104-0.621,0-1.345-0.568-1.189c-0.31,0.053-0.362,0.311-0.413,0.518c-0.104,0.414-0.414,0.568-0.724,0.826
		c-0.568,0.465-1.033,1.033-1.653,1.447c-1.86,1.291-1.085,3.926,0.93,3.668c1.55-0.207,3.875,0.518,6.148-0.361
		c1.808-0.724,2.945-1.447,3.151-1.652c0.207-0.207,0.414-0.775,0.672-1.086C113.307,163.002,113.1,162.795,112.945,162.744z
		 M102.146,161.917c-0.724-0.774-2.532-0.62-4.03-0.155c-0.62,0.879-0.878,2.223-0.258,3.771c1.085,2.273,2.738,4.547,3.204,2.894
		C98.53,163.982,99.873,162.176,102.146,161.917z M86.491,168.84c0.052,3.102,3.462,3.928,5.838,3.721
		c2.17-0.154,3.255-0.465,4.185-1.912c0.878-1.445,0.93-5.219-2.48-6.457c-1.033-0.362-2.377-0.207-3.307-0.207
		C89.591,164.087,86.439,165.172,86.491,168.84z M96.979,174.059c-0.31-0.567-2.945,0.104-5.115,0.053
		c-1.55-0.053-4.96-1.24-4.805,1.859c0,0.104,0.775,41.593,0.775,41.593c0.052,0,0.052,0.052,0.052,0.052
		c1.55,0.36,2.997,0.517,4.289,0.517c2.066,0,3.617-0.361,4.185-0.517c0.103-3.565,0.93-40.973,0.93-41.387
		C97.393,175.66,97.548,174.627,96.979,174.059z M156.449,219.112c-1.86,1.446-5.063,3.307-11.573,3.101
		c-4.909-0.207-25.317-6.82-29.916-9.403c-1.447-0.826-3.307-2.066-5.063-4.236c-1.343-1.757-3.823-8.37-4.547-10.18
		c0,2.584,0.362,5.271,0.724,8.01c0.775,5.527,4.237,11.419,10.23,13.175c0.982,0.311,2.635,1.188,6.562-0.051
		c1.136-0.362,1.808-0.982,3.048-0.982c2.687,0,5.477,1.912,7.802,2.842c1.188,0.518,2.273,0.931,3.565,1.24
		c1.343,0.361,4.702,1.137,8.835,1.137C151.024,223.711,154.692,221.902,156.449,219.112z M173.241,216.426
		c-0.827,0.155-4.03,0.981-7.027,0.931c-4.702-0.154-4.547-0.518-4.96-1.138c-1.499-2.17-0.878-15.035-1.55-25.729
		c-0.31-5.22,3.772-21.028-7.388-23.51c-7.543-0.93-13.692,11.108-23.199,5.891c-4.082-2.223-10.282-5.734-18.652-5.734
		c-12.4,1.446-11.264,10.229-11.057,11.625c0.361,3.151,0.413,5.528,0.207,8.111c-0.155,6.045-1.963,13.021-2.119,20.615
		c0.982,12.399,7.234,12.813,7.543,12.813c0.775,0.362-8.473,0.827-7.078,0.207c0.62-0.155,0.878-0.207,0.93-0.567
		c0.104-0.518,0.31-1.188-0.258-1.447c-1.137-0.518-1.395-0.568-1.395-0.568s-0.103,0.207-0.258,0.259c0,0-1.912,0.62-4.702,0.62
		c-0.93,0-4.856-0.517-5.477-0.62c-1.034-0.154-1.137,2.171,0.052,2.43c1.756,0.62,4.082,0.258,4.082,0.723s-5.632,0.259-7.44,0.414
		c-0.724,0.981-0.62,2.222,0.258,2.738c1.705,0,11.935-1.757,21.132-2.377c9.197-0.62,17.722-0.155,17.929-0.155
		c-0.258,0.827-0.207,1.498-0.517,2.325c-0.207,0.672,0.155,1.239,0.568,1.292c0.361,0.052,1.86,0.62,4.546-2.17
		c0.517-0.519,1.292-1.292,1.653-1.912c0.258-0.413-0.103-0.568-0.981-0.981c-0.775-0.361-2.119-0.931-2.945-0.931
		c-1.033,0.052-0.93,0.155-1.86,0.62c-2.583,1.292-5.425,0.517-6.458,0.361c-1.86-0.361-3.307-1.085-5.012-1.911
		c-2.325-1.138-4.598-2.377-6.2-4.443c-0.465-0.62-1.446-1.963-2.118-4.34c-0.207-0.775-0.104-1.498-0.31-1.603
		c-0.413-0.259-0.258,2.17-0.258,2.376c0.155,1.653,0.517,3.309,0.93,4.909c0,0-0.775,0.568-2.119-2.325
		c-0.671-1.602-0.827-4.236,0-7.596c0.414-1.704,1.963-6.251,2.015-8.267c0-0.104,0.155-17.723,0.155-17.723
		s-0.104-9.559,8.215-9.559c5.528,0.154,11.005,7.904,13.434,13.795c0,0,5.632,14.209,12.09,16.999c0,0,1.756,0.672,3.978,0.724
		c0.93,0,0.568,1.705-4.34,0c-5.994-2.066-13.279-16.999-13.279-16.999c-3.875-7.077-7.75-13.227-11.883-13.124
		c-2.325,0-4.03,1.5-5.167,3.102c-0.982,1.344-1.602,2.945-1.602,5.684l-0.207,14.983c1.292-1.24,2.222-2.945,6.097-2.895
		c0.568,0,1.137,0.104,1.705,0.26c9.765,2.842,13.485,10.333,17.773,15.86c3.979,5.322,13.072,6.977,16.482,6.925
		c0.414,0,1.809,0.567,1.447,0.724c-2.583,0.878-14.777-0.155-14.519-0.155c-12.349-0.724-10.23-19.117-22.579-22.165
		c-1.188-0.311-2.79-0.567-4.185,1.446c2.17,11.936,7.595,15.552,10.592,17.257c6.975,3.101,17.464,7.492,27.59,7.75
		c8.112,0.259,12.452-5.27,12.349-4.649c-0.258,1.446-0.672,6.148,0.775,6.304c1.292,0.104,18.135,0.827,18.239,0.827
		c1.292,0.052,1.343-2.636,0.31-2.688c-1.034-0.052-9.765,0.465-9.765,0c0-0.466,4.96-0.931,5.735-1.034
		C174.274,219.216,174.067,216.271,173.241,216.426z M179.958,133.241c-0.258-0.155-0.568,0.31-1.033,0.517
		c-0.93,0.413-1.809,0.98-2.79,1.705c-0.982,0.672-1.499,1.085-1.809,1.395c-0.052,0.053-0.568,0.775-0.62,0.672
		c-0.155-0.154,0.104-0.672,0.207-0.826c0.052,0,2.894-2.842,5.115-3.514c1.137-0.414,1.24-1.084,1.033-1.395
		c-0.207-0.361-1.24,0.104-1.24,0.104c-0.258,0.361-0.517,0.361-1.085,0.672c-0.93,0.361-2.17,1.24-3.204,2.065
		c-1.24,0.775-1.756,2.171-1.756,1.654c0-0.31,0.31-1.034,1.033-1.603c1.033-0.826,2.79-2.324,3.823-2.635
		c0.93-0.207,1.292-0.93,1.085-1.085c-0.31-0.207-1.756,0.259-2.945,0.724c-0.93,0.31-2.635,1.652-3.1,1.859
		c-0.207,1.551-0.62,1.705-1.188,2.43c-0.568,0.774-0.362,0.98-0.517,1.135c-0.207,0.207-0.413-0.516-0.155-0.98
		c0,0,0-0.207,0.568-0.98c0.981-1.293,1.033-2.016,1.033-2.325c0-0.259-0.207-0.878-0.62-0.775c-0.258,0.103-0.413,0.568-0.62,0.775
		c-0.258,0.31-0.517,0.567-0.723,0.827c-0.465,0.517-0.982,1.033-1.395,1.602c-0.414,0.568-0.982,3.824-0.982,3.824
		c-0.051,0.104,0,0.62-0.568,1.395c-0.155,0.311-0.517,0.362-0.723,0.62c-0.206,0.259-0.104,0.62-0.052,0.878
		c0.104,0.518,0.31,0.982,0.568,1.447c0.258,0.465,0.414,0.93,0.878,1.292c0.775,0.62,1.55,0.362,2.377-0.052
		c0.827-0.413,1.55-0.879,2.17-1.551c1.033-1.137,1.653-2.479,2.376-3.771c0.155-0.258,0.258-0.465,0.465-0.671
		c0.93-0.672,2.17-2.067,2.635-2.272c0.568-0.311,1.395-0.931,1.137-1.396c-2.17,0.827-4.03,2.997-4.65,3.204
		c0-0.465,0.052-0.311,0.413-0.672c1.757-1.758,3.41-2.48,4.185-2.997C179.337,134.74,180.526,133.707,179.958,133.241z
		 M183.833,178.555c-0.258-0.775-0.052-1.396,0.155-2.119s0.258-1.498,0.362-2.222c-0.671,0.672-2.687,2.222-2.17,3.41
		c0.413,1.033,0.981,2.015,1.395,3.048C184.297,180.672,183.936,178.915,183.833,178.555z M195.406,181.396
		c-0.207-0.259-1.033-0.259-1.395-0.259c-0.568-0.052-1.188-0.103-1.756-0.153c-1.034-0.104-2.635-0.155-4.392,0.31
		c-1.188,0.361-2.428,0.672-3.513,1.344c-0.62,0.413-0.155,0.724,0.362,0.878c0.671,0.155,1.24-0.258,1.86-0.206
		c0.724,0.052,1.343,0.104,2.067,0.052c0.361,0,0.723,0.104,1.033,0.207c1.033,0.207,1.963,0.724,2.997,0.93
		c0.827,0.155,1.447,0.207,2.17,0.517C195.147,184.341,195.923,182.016,195.406,181.396z M202.898,177.21
		c-0.258,0.981,0.258,1.085,0.775,1.705c0,0.62-0.775-0.104-1.137-0.36c-0.104-0.053-0.207-0.156-0.31-0.207
		c-1.085-0.466-2.428-0.724-3.565-0.879c-1.137-0.104-1.705-0.361-3.772-0.826c-1.137-0.259-1.912-1.138-2.583,0.361
		c-0.31,0.672-1.137,2.635-0.465,3.048c0.517,0.312,4.805,0,5.167,0c0.93,0,8.473,1.292,8.938,1.499
		c0.258,0.104,0.155-0.775,0.155-0.775c-0.878-1.809-1.085-5.94-1.085-5.94s-1.292,0-1.343,0
		C203.415,175.764,203.104,176.384,202.898,177.21z M214.523,155.459c0,0-0.31-0.621-0.775-0.982
		c-0.517-0.36-1.24-0.104-1.757,0.053c-0.207,0.052-0.517,0.205-0.723,0.154c-0.052,0-0.465-0.414-0.517-0.36
		c-0.465,0.567-1.55,0.774-2.273,0.618c-0.258-0.051-0.362-0.153-0.568-0.258c-0.31-0.154-0.155-0.104-0.414,0.051
		c-0.62,0.312-1.55,0.26-2.118-0.153c-0.568-0.414-0.724-1.345-0.982-1.963c-0.258-0.673-0.465-0.981-0.62-1.086
		c-0.051-0.104-0.051-0.154-0.155-0.259c-0.104-0.104-0.207-0.051-0.31-0.104c0.104-0.154,0.258-0.258,0.465-0.311
		c0.775-0.258,1.034,1.498,1.24,1.912c0.207,0.465,0.414,1.084,0.827,1.395c0.207,0.156,0.362,0.207,0.672,0.156
		c0.051,0,0.568-0.207,0.517-0.26c-0.362-0.258-0.982-2.324-0.104-2.015c0.155,0.052,0.31,0.931,0.568,1.188
		c0.724,0.724,2.067,0.518,2.997,0.361c0.414-0.052,1.292-0.052,0.982-0.672c0.465,0,0.517,0.465,0.981,0.568
		c0.258,0.052,2.015-0.413,2.119-0.26c0.413-0.516-1.137-1.188-2.325-4.287c-0.207-0.568-0.723-1.447-1.602-3.049
		c-1.602-3.617-4.96-6.457-11.625-3.875c-1.963,0.775-3.617,2.429-4.805,4.133c-0.724,1.086-2.48,3.771-0.93,4.908
		c0.104-0.104,0.207-0.258,0.258-0.36c0.672-0.879,1.085-1.188,1.963-1.705c0.052-0.052,1.963-1.138,1.86-0.567
		c0,0.154,0.052,0.412,0.052,0.567c1.809,0.104,1.963,0.879,2.687,2.17c0.258,0.465,1.705,2.325,2.428,1.86
		c-0.052,0.205-0.155,0.412-0.155,0.517c-0.103,0.104-0.155,0.154-0.258,0.207c-0.361,0.104-0.827-0.259-1.292-0.621
		c-1.188-0.93-2.532-2.272-3.979-2.737c-0.827-0.259-2.222-0.259-2.79,0.518c-0.723,0.98,0.362,2.531,0.672,3.513
		c0.052,0.207,0.104,0.517,0.207,0.673c0.104,0.258,0.362,0.465,0.517,0.723c0.155,0.311,0.155,0.207,0.258,0.518
		c0.155,0.465,0.465,1.602,0.568,2.066c0.155,0.619,0.207,0.877,0.362,1.498c0.104,0.517,0.414,1.447,1.137,1.138
		c0.31-0.156,0.568-0.519,0.981-0.621c0.207-0.051,0.362,0.155,0.568,0.465c0.207,0.312,0.155,0.259,0.207,0.312
		c0.103,0.207,0.568,0.414,0.827,0.154c0.827-0.466,0.775-0.619,1.033-0.517c0.465,0.153,0.62,0.153-0.207,1.085
		c-0.104,0.518,0.517,0.671,0.517,0.671c0.93,0.054,0.93,1.293,2.067,1.034c0.878-0.207,1.653-1.137,2.222-1.809
		c0.361-0.414,0.62-0.828,1.188-1.5c0.207-0.258,0.672-1.238,0.93-0.723c0.104,0.207,0.104,0.62,0.104,0.879
		c0.051,0.672,0.775,0.465,1.653-0.414C213.334,156.389,214.471,156.337,214.523,155.459z M61.743,158.352
		c0.31,0.26,0.517,0.568,0.775,0.672c0.207,0.053,0.413,0.053,0.723-0.207c0.362-0.258,0.878-0.773,1.034-1.239
		c0.103-0.466,0.103-0.724-0.362-0.878c-0.155-0.053-0.62-0.053-0.568,0.207c0,0.205,0.517,0.205,0.517,0.568
		c0,0.567-0.31,0.412-0.723,0.36c-0.362-0.052-0.775-0.103-1.137-0.155C61.019,157.422,61.174,157.887,61.743,158.352z
		 M147.666,146.572c-0.258-0.362-1.912-2.377-2.119-2.273s0.465,2.842,1.033,3.358C147.304,148.07,147.924,147.295,147.666,146.572z
		 M95.326,176.229h-4.908c-0.414,0-0.104,0.362,0.31,0.362c4.133,0,4.082,0.826,4.908,0.826
		C96.462,177.417,96.566,176.229,95.326,176.229z M158.05,191.108c-0.413-0.104-1.912,12.039-3.1,15.294
		c-1.292,3.514-2.222,4.855-4.185,5.94c-0.362,0.207-0.31,1.085-0.31,1.085s4.702-1.291,5.838-6.045
		c0.723-3.048,1.395-6.717,1.705-9.196c0.155-1.344,0.62-6.147,0.62-6.147l0,0C158.619,191.471,158.464,191.212,158.05,191.108z
		 M122.968,161.297c0.104,0.053,0.827,0.518,1.085,0.258c0.155-0.205-4.392-3.822-13.434-5.527c-4.236-0.774-8.215-0.93-11.211-0.93
		c-3.048,0-5.063,0.205-5.063,0.205c-0.465,0.053-0.827,0.982-0.827,0.982s2.842-0.258,5.89-0.258c2.945,0,6.872,0.205,11.057,0.93
		C115.58,157.887,119.92,159.178,122.968,161.297z M127.309,109.682c-1.137,0.051-1.395,0.207-2.325,0.567
		c-0.878,0.362-2.067,1.653-2.067,1.653s-0.258,0.619-0.051,1.343s0.207,0.724,0.517,1.032c0.361,0.363,0.723,0.414,0.723,0.414
		s-1.447-1.705-0.672-2.531c2.429-2.738,4.599-1.292,4.599-1.292S128.807,109.629,127.309,109.682z M117.75,148.742
		c0.052,0.412,0.568,0.723,0.981,0.568c0.62-0.156,0.362-2.945,0.31-2.998C119.042,146.262,117.698,147.967,117.75,148.742z
		 M107.417,140.423c-0.414,0.981,0.517,1.24,0.93,1.033c0.671-0.362,1.137-2.687,1.033-2.79
		C109.38,138.615,107.727,139.906,107.417,140.423z M115.218,145.486c0,0.414,0.62,0.672,0.981,0.517
		c0.362-0.31,0.775-2.842,0.568-2.944C116.562,143.006,115.322,144.711,115.218,145.486z M110.361,144.453
		c0.104,0.465,0.362,0.672,0.827,0.62c1.085-0.104,1.085-3.152,1.034-3.255C112.118,141.715,110.31,143.626,110.361,144.453z
		 M163.32,175.919c0.827,0,0.155-0.567,4.289-0.567c0.465,0,0.465-0.568,0.052-0.568h-4.03
		C162.391,174.73,162.494,175.919,163.32,175.919z M127.928,118.671c0,0-1.033,0.259-1.756,0.517
		c-0.827,0.311-0.724,0.879-1.344,0.879c-0.671,0.103-0.878,0.465-0.878,0.465c-0.155,0.207,1.343,0.207,1.808-0.311
		c0.568-0.93,1.085-0.723,1.499-0.878C127.67,119.136,128.342,118.568,127.928,118.671z M121.211,115.623
		c-0.31-0.155-0.93,0-1.188,0.104c-0.31,0.104-1.395,0.672-1.034,1.188c-0.051-0.104,1.034-1.085,1.809-0.775
		c0.104,0.361-1.033,0.775-1.55,1.033c-0.413,0.98,1.24,0.155,1.499,0c0.568-0.361,0.775-0.775,1.085-0.93
		C122.09,116.141,121.315,115.674,121.211,115.623z M149.525,181.24c-1.447,0-7.75,12.504-20.874,3.823
		c-0.517-0.361-1.809-1.603-1.963-1.344c-0.155,0.258,0.465,0.981,0.827,1.344C140.277,197.98,151.385,181.24,149.525,181.24z
		 M125.396,118.051c0.104-0.104,0.259,0.053,0.259,0.053c0.103-0.053,0.155-0.207,0.103-0.311c-0.052-0.104-0.207-0.154-0.31-0.104
		c0,0-0.62,0.619-1.292,1.033c-0.258,0.154-0.568,0.207-0.568,0.207c-0.104,0.051-0.155,0.154-0.155,0.154
		c0.052,0.104,0.104,0.207,0.207,0.207c0,0,0.103,0,0.258-0.051c0,0,0.775-0.104,0.93-0.207
		C125.035,118.878,125.396,118.051,125.396,118.051z M127.618,119.963c-0.413,0.311-1.24,0.878-1.705,1.085
		c-0.878,0.414-1.344-0.155-1.344-0.052c-0.051,0.207,1.034,0.982,2.222,0.104C127.67,120.428,127.877,119.705,127.618,119.963z
		 M126.895,112.109c-0.568,0-1.085,0.154-1.55,0.465c-0.207,0.104-0.465,0.31-0.62,0.465c-0.155,0.207-0.052,0.207,0,0.465
		c0.052,0.207-0.104,0.568,0,0.725c0.103,0.154,0.517,0.051,0.671,0.051c0.724,0,1.447-0.413,1.809-0.981
		c0.104-0.155,0.723-1.085,0.672-1.292c-0.052-0.154-0.362-0.154-0.414,0.051c-0.362,1.396-2.015,1.963-2.273,1.344
		C125.035,112.833,127.205,112.109,126.895,112.109z"/>
	<path fill="#D8A915" d="M128.91,26.445C60.709,26.445,5.425,81.729,5.425,149.93S60.709,273.415,128.91,273.415
		c68.201,0,123.485-55.284,123.485-123.485S197.111,26.445,128.91,26.445z M128.91,246.703c-53.424,0-96.773-43.298-96.773-96.773
		c0-53.424,43.297-96.771,96.773-96.771c53.424,0,96.773,43.297,96.773,96.771C225.683,203.405,182.386,246.703,128.91,246.703z"/>
	<path fill="#FFFFFF" d="M47.172,235.284l-4.185-4.547l0.413-0.361l1.292,1.396l6.148-11.265l-0.052-0.052l-11.522,5.373
		l1.499,1.602l-0.414,0.362l-3.151-3.358l0.413-0.361l1.188,1.292l15.293-7.078l0.414,0.465l-8.112,14.88l1.188,1.292
		L47.172,235.284z M34.617,220.095l1.085,1.55l-0.465,0.311l-2.687-3.927l5.838-12.35l-0.051-0.052l-9.3,6.304l1.085,1.551
		l-0.465,0.311l-2.532-3.72l0.465-0.312l1.033,1.55l13.279-9.042l0.361,0.519l-7.75,16.326l0.052,0.052l12.09-8.268l-1.034-1.55
		l0.465-0.311l2.532,3.721l-0.465,0.311l-1.085-1.551L34.617,220.095z M37.304,194.364l3.048,5.786l-0.517,0.259l-0.981-1.86
		l-13.382,7.078l0.981,1.86l-0.517,0.259l-3.048-5.787l0.517-0.259l0.982,1.859l13.382-7.077l-0.982-1.86L37.304,194.364z
		 M21.752,199.996l-2.273-5.735l0.517-0.207l0.672,1.757l9.817-8.267v-0.052l-12.762,0.827l0.827,2.065l-0.517,0.206l-1.705-4.288
		l0.517-0.207l0.62,1.604l16.844-1.085l0.207,0.567l-12.968,10.953l0.671,1.653L21.752,199.996z M31.465,180.259l-0.568,0.104
		l-0.517-2.067l-14.725,3.565l0.517,2.065l-0.517,0.155l-2.894-11.986l3.875-0.931l0.104,0.517
		c-2.738,1.086-2.842,2.688-2.325,4.807l0.724,3.1l6.82-1.652c-0.568-2.377-0.775-3.151-3.358-2.843l-0.103-0.517l5.993-1.446
		l0.104,0.517c-2.48,0.774-2.583,1.81-2.015,4.186l7.285-1.757l-0.672-2.841c-0.775-3.102-1.395-4.082-5.012-3.824l-0.155-0.619
		l4.495-0.775L31.465,180.259z M28.21,166.566l-0.568,0.053l-0.155-1.861L12.4,166.152l0.155,1.861l-0.568,0.051l-0.672-7.129
		c-0.465-4.65,1.963-5.58,3.049-5.685c3.151-0.312,4.03,2.429,4.443,4.701h0.051c0.414-2.843,1.292-4.856,5.115-4.96
		c1.188-0.053,2.222-0.311,2.428-0.827c0.258-0.465,0.052-1.396-0.31-2.17l0.62-0.052c0.362,0.775,0.568,1.498,0.672,2.119
		c0.207,1.705-0.62,2.789-1.757,3.203c-0.413,0.154-2.376,0.517-3.823,0.826c-1.085,0.207-2.894,0.619-2.583,3.668l0.155,1.447
		l7.905-0.775l-0.155-1.912l0.568-0.051L28.21,166.566z M18.807,163.209l-0.104-1.292c-0.258-2.636-0.62-4.288-3.927-3.979
		c-2.325,0.26-2.997,1.293-2.738,3.67l0.207,2.272L18.807,163.209z M27.022,150.602v0.312l-4.185-0.155v-0.466
		c2.222-0.567,3.979-2.169,4.082-4.546c0.104-2.119-1.24-4.135-3.358-4.237c-1.447-0.052-2.119,0.259-2.945,2.118
		c-0.362,0.878-1.757,4.6-2.015,4.96c-0.93,1.396-2.428,1.861-3.771,1.861c-0.982-0.054-1.86-0.362-2.738-1.085
		c-0.93-0.775-1.653-1.963-1.602-3.824c0.052-1.137,0.827-2.688,1.188-3.15l-0.671-0.931v-0.362l3.771,0.155v0.465
		c-2.015,0.466-3.668,1.81-3.771,3.979c-0.052,1.652,1.033,3.513,2.841,3.564c4.03,0.155,1.757-9.197,8.37-8.938
		c3.307,0.104,5.322,2.273,5.219,5.477c-0.052,1.344-0.465,2.688-1.499,3.668L27.022,150.602z M28.365,132.828l-0.878,6.51
		l-0.568-0.104l0.258-2.067l-14.984-2.015l-0.258,2.065l-0.568-0.052l0.878-6.51l0.568,0.052l-0.258,2.065l14.983,2.016l0.258-2.066
		L28.365,132.828z M29.037,129.471l-0.568-0.104l0.465-1.964l-14.725-3.461l-0.362,1.603c-0.517,2.222,1.085,2.894,3.358,3.875
		l-0.155,0.62l-4.495-1.344l2.842-12.193l4.598,0.878L19.84,118c-2.325-0.258-4.289,0.104-4.857,2.583l-0.258,1.033l14.725,3.462
		l0.465-1.963l0.568,0.154L29.037,129.471z M30.69,121.514l-0.517-0.207l0.671-1.809L17.72,109.061l0.362-0.877l16.637,0.826
		l0.568-1.602l0.517,0.207l-2.067,5.734l-0.517-0.207l0.671-1.859l-5.58-0.258l-1.602,4.34l4.443,3.462l0.724-1.964l0.517,0.207
		L30.69,121.514z M27.539,111.023l-6.872-0.412v0.051l5.425,4.289L27.539,111.023z M36.529,106.633l-0.155,0.311l-3.72-1.963
		l0.207-0.414c2.273,0.465,4.547-0.258,5.632-2.325c0.981-1.86,0.672-4.289-1.24-5.271c-1.292-0.671-2.015-0.671-3.565,0.62
		c-0.723,0.62-3.565,3.41-3.979,3.617c-1.446,0.827-2.997,0.62-4.236,0c-0.878-0.465-1.499-1.137-2.015-2.17
		c-0.517-1.085-0.62-2.48,0.207-4.133c0.517-0.982,1.86-2.067,2.428-2.325l-0.207-1.138l0.155-0.31l3.358,1.757l-0.207,0.414
		c-2.015-0.465-4.133,0.051-5.115,1.963c-0.775,1.446-0.62,3.565,1.033,4.443c3.565,1.859,5.58-7.492,11.418-4.393
		c2.945,1.551,3.823,4.393,2.325,7.183c-0.62,1.188-1.602,2.222-2.945,2.687L36.529,106.633z M45.157,72.48l-0.362,0.414
		c-2.118-1.086-4.288-1.293-5.941,0.67c-0.982,1.188-0.93,2.791-0.568,3.772c0.775,1.86,3.358,4.134,4.392,5.013
		c3.204,2.687,5.838,4.236,8.318,1.291c1.499-1.808,0.93-4.236-0.31-6.097l0.362-0.465l3.41,2.842l-0.414,0.517l-1.188-0.104
		c0,1.499-0.517,2.79-1.395,3.823c-2.894,3.462-7.492,2.894-11.109-0.103c-3.668-3.049-4.082-8.216-1.86-10.851
		c0.93-1.138,1.912-1.55,3.307-1.912l-0.052-1.085l0.258-0.258L45.157,72.48z M55.129,79.042l-0.361-0.414l1.446-1.292
		l-6.716-15.345l0.723-0.62l14.363,8.475l1.24-1.138l0.362,0.413l-4.547,4.082l-0.362-0.414l1.447-1.292l-4.856-2.843l-3.462,3.101
		l2.273,5.115l1.55-1.396l0.362,0.414L55.129,79.042z M57.248,68.295l-5.89-3.564l-0.052,0.052l2.842,6.354L57.248,68.295z
		 M67.633,68.244l-0.31-0.465l1.653-1.137l-8.732-12.349l-1.343,0.931c-1.86,1.342-1.085,2.894-0.104,5.114L58.28,60.7l-2.48-3.978
		l10.23-7.233l2.842,3.72l-0.517,0.361c-1.55-1.704-3.255-2.737-5.322-1.291l-0.878,0.619l8.732,12.35l1.653-1.137l0.31,0.465
		L67.633,68.244z M81.841,49.489l-3.152-6.2l-1.705,0.878l-0.258-0.517l5.477-2.791l0.258,0.518l-1.705,0.878l6.872,13.485
		l1.705-0.879l0.258,0.518l-5.477,2.79l-0.258-0.517l1.705-0.879l-3.41-6.613L75.9,53.313l3.41,6.664l1.705-0.877l0.258,0.517
		l-5.477,2.79l-0.258-0.518l1.705-0.878l-6.872-13.485l-1.705,0.879l-0.258-0.518l5.477-2.738l0.258,0.518l-1.705,0.878l3.152,6.2
		L81.841,49.489z M88.041,47.268c-1.343-4.082,0-8.938,3.979-10.23s7.957,1.757,9.3,5.89c1.343,4.082,0,8.938-3.979,10.282
		C93.363,54.5,89.385,51.35,88.041,47.268z M98.685,43.805c-1.55-4.805-3.255-7.285-6.458-6.251c-3.203,1.033-3.1,4.082-1.55,8.835
		c1.55,4.754,3.307,7.285,6.458,6.252C100.338,51.607,100.235,48.559,98.685,43.805z M104.833,50.47l-0.103-0.567l1.963-0.362
		l-2.687-14.88l-1.963,0.361l-0.103-0.568l6.51-1.188l0.104,0.567l-2.222,0.413l2.687,14.88l4.289-0.774
		c1.963-0.362,2.48-2.945,2.48-4.496l0.465-0.104l0.568,4.547L104.833,50.47z M123.743,47.887l-6.51,0.518l-0.052-0.568l2.066-0.154
		l-1.24-15.088l-2.067,0.155l-0.051-0.567l6.51-0.518l0.052,0.568l-2.067,0.154l1.24,15.088l2.067-0.156L123.743,47.887z
		 M136.867,36.003h-0.568c-0.465-2.325-1.705-4.185-4.236-4.237c-1.55,0-2.79,1.033-3.255,1.912
		c-0.981,1.758-1.085,5.219-1.137,6.563c-0.103,4.185,0.362,7.182,4.185,7.285c2.377,0.052,3.875-1.86,4.547-4.03h0.568
		l-0.104,4.442h-0.671l-0.672-1.032c-1.188,0.93-2.48,1.292-3.875,1.292c-4.495-0.104-6.975-4.03-6.872-8.731
		c0.103-4.805,3.875-8.319,7.285-8.267c1.446,0.052,2.376,0.517,3.565,1.343l0.827-0.724h0.362L136.867,36.003z M138.003,47.938
		l0.104-0.567l1.912,0.31l7.75-14.88l0.93,0.155l2.376,16.534l1.705,0.258l-0.103,0.567l-6.045-0.981l0.104-0.567l1.963,0.31
		l-0.775-5.58l-4.599-0.724l-2.583,5.013l2.067,0.362l-0.104,0.567L138.003,47.938z M147.769,42.824l-0.93-6.82h-0.052l-3.152,6.148
		L147.769,42.824z M162.442,53.416l-0.31-0.104l1.55-3.875l0.414,0.154c-0.207,2.273,0.723,4.495,2.893,5.374
		c1.963,0.775,4.289,0.259,5.115-1.757c0.517-1.343,0.465-2.066-0.982-3.461c-0.723-0.672-3.72-3.204-3.978-3.564
		c-0.982-1.344-0.93-2.945-0.465-4.186c0.362-0.93,0.982-1.602,1.963-2.223c1.034-0.619,2.429-0.877,4.134-0.207
		c1.033,0.414,2.222,1.654,2.531,2.171l1.137-0.31l0.31,0.103l-1.395,3.514l-0.465-0.207c0.258-2.065-0.465-4.082-2.48-4.907
		c-1.55-0.621-3.617-0.207-4.289,1.446c-1.498,3.771,8.009,4.753,5.528,10.902c-1.24,3.1-3.978,4.237-6.923,3.048
		c-1.292-0.518-2.376-1.344-2.945-2.635L162.442,53.416z M172.208,57.135l0.258-0.517l1.653,0.93l12.4-11.264l0.827,0.465
		l-3.41,16.327l1.498,0.826l-0.258,0.466l-5.374-2.945l0.258-0.465l1.705,0.981l1.137-5.478l-4.03-2.272l-4.133,3.822l1.808,1.033
		l-0.258,0.465L172.208,57.135z M183.109,55.688l1.498-6.717l-0.052-0.051l-5.115,4.702L183.109,55.688z M201.761,62.044
		l-0.465-0.31c0.982-2.17,1.085-4.393-0.981-5.942c-1.24-0.93-2.842-0.774-3.772-0.362c-1.808,0.827-3.927,3.565-4.753,4.65
		c-2.531,3.357-3.927,6.045-0.827,8.37c1.912,1.446,4.237,0.723,6.045-0.62l0.465,0.361l-2.687,3.565l-0.517-0.414l0.051-1.188
		c-1.498,0.103-2.79-0.362-3.875-1.188c-3.617-2.687-3.255-7.337-0.465-11.107c2.894-3.824,8.008-4.495,10.747-2.43
		c1.188,0.879,1.653,1.81,2.067,3.204l1.085-0.104l0.31,0.207L201.761,62.044z M196.026,72.688l0.414-0.414l1.343,1.344
		l10.695-10.695l-1.344-1.343l0.414-0.413l5.063,5.063c3.307,3.308,2.066,5.528,1.292,6.304c-2.273,2.222-4.65,0.724-6.407-0.775
		l-0.052,0.052c1.499,2.48,2.119,4.547-0.775,7.131c-0.878,0.774-1.55,1.652-1.343,2.222c0.104,0.567,0.827,1.085,1.602,1.446
		l-0.413,0.414c-0.775-0.361-1.395-0.775-1.86-1.188c-1.24-1.188-1.292-2.532-0.671-3.565c0.207-0.414,1.498-1.912,2.428-3.049
		c0.723-0.878,1.86-2.324-0.31-4.494l-1.033-1.035l-5.632,5.58l1.343,1.344l-0.413,0.414L196.026,72.688z M205.43,69.277l0.93,0.93
		c1.912,1.859,3.255,2.895,5.58,0.568c1.653-1.653,1.447-2.894-0.207-4.547l-1.653-1.652L205.43,69.277z M210.544,88.652
		l-4.082-5.115l0.465-0.362l1.292,1.653l11.832-9.455l-1.292-1.652l0.413-0.363l4.082,5.115l-0.414,0.362l-1.292-1.653
		l-11.832,9.455l1.292,1.653L210.544,88.652z M233.691,104.876l-0.258-0.517c1.86-1.5,2.945-3.41,1.809-5.685
		c-0.672-1.395-2.17-2.015-3.204-2.065c-2.015-0.053-5.115,1.395-6.355,1.963c-3.772,1.808-6.252,3.617-4.547,7.078
		c1.034,2.119,3.462,2.582,5.632,2.222l0.258,0.517l-3.979,1.963l-0.31-0.567l0.62-1.033c-1.395-0.62-2.325-1.603-2.893-2.842
		c-1.963-4.03,0.465-8.009,4.65-10.075c4.289-2.118,9.145-0.361,10.644,2.739c0.62,1.292,0.62,2.376,0.413,3.771l1.034,0.414
		l0.155,0.311L233.691,104.876z M231.573,109.371c4.082-1.292,8.938,0.104,10.178,4.082c1.292,3.979-1.808,7.904-5.941,9.249
		c-4.082,1.343-8.938-0.052-10.23-4.03C224.288,114.641,227.491,110.714,231.573,109.371z M234.983,120.066
		c4.805-1.551,7.285-3.256,6.251-6.407c-1.033-3.204-4.03-3.152-8.835-1.603c-4.753,1.551-7.285,3.205-6.252,6.459
		C227.13,121.668,230.178,121.564,234.983,120.066z M228.111,125.285l0.568-0.104l0.31,1.859l14.932-2.583l-0.31-1.86l0.568-0.104
		l1.24,7.079c0.775,4.598-1.498,5.683-2.583,5.89c-3.151,0.568-4.236-2.117-4.805-4.34h-0.052c-0.207,2.895-0.878,4.908-4.753,5.374
		c-1.188,0.155-2.222,0.465-2.377,1.032c-0.207,0.518,0.052,1.396,0.465,2.119l-0.62,0.104c-0.414-0.775-0.672-1.447-0.827-2.066
		c-0.31-1.705,0.413-2.842,1.498-3.308c0.414-0.207,2.325-0.671,3.72-1.085c1.085-0.311,2.842-0.827,2.325-3.875l-0.258-1.447
		l-7.75,1.396l0.31,1.911l-0.568,0.104L228.111,125.285z M237.773,127.92l0.207,1.292c0.465,2.636,0.981,4.237,4.237,3.668
		c2.325-0.414,2.893-1.55,2.48-3.823l-0.414-2.273L237.773,127.92z M246.35,142.283l-0.052-1.86h0.568l0.104,6.511
		c0.103,4.598-2.997,7.646-7.854,7.75c-2.842,0.051-4.96-0.982-6.562-2.43c-1.653-1.55-1.86-3.822-1.86-5.063l-0.104-6.459h0.568
		l0.052,1.86L246.35,142.283z M231.263,144.918l0.052,2.376c0.052,2.843,1.55,3.722,2.635,4.187
		c1.137,0.465,3.255,0.516,5.632,0.465c3.462-0.053,6.975-0.465,6.872-5.529l-0.051-1.809L231.263,144.918z M230.075,162.33
		l0.62-6.51l0.568,0.051l-0.207,2.066l15.087,1.396l0.207-2.066l0.568,0.051l-0.62,6.511l-0.568-0.052l0.207-2.066l-15.087-1.396
		l-0.207,2.067L230.075,162.33z M229.92,163.52l0.052-0.311l4.133,0.773l-0.104,0.466c-2.273,0.259-4.289,1.603-4.702,3.927
		c-0.362,2.066,0.62,4.289,2.738,4.65c1.395,0.258,2.119,0.052,3.204-1.653c0.517-0.827,2.376-4.288,2.687-4.599
		c1.137-1.24,2.687-1.498,4.03-1.24c0.981,0.154,1.756,0.619,2.531,1.498c0.775,0.879,1.344,2.223,1.034,4.031
		c-0.207,1.084-1.188,2.53-1.653,2.943l0.517,1.033l-0.052,0.311l-3.72-0.672l0.104-0.465c2.067-0.154,3.875-1.292,4.289-3.41
		c0.31-1.652-0.517-3.615-2.273-3.927c-3.979-0.724-3.1,8.783-9.61,7.595c-3.255-0.619-4.908-3.048-4.34-6.199
		c0.258-1.344,0.878-2.584,2.015-3.41L229.92,163.52z M237.618,196.172l-0.517-0.206l0.723-1.912l-13.02-5.063
		c-2.222-0.878-2.997-3.255-2.222-5.271c0.414-0.98,1.55-2.118,2.894-1.55c0.827,0.311,1.188,0.981,0.878,1.756
		c-0.259,0.672-0.93,0.982-1.602,0.725c-0.671-0.26-0.723-0.775-0.981-0.878c-0.31-0.104-0.568,0.31-0.62,0.567
		c-0.31,0.774,0.155,1.498,0.981,1.859l14.622,5.684l0.775-2.015l0.517,0.206L237.618,196.172z M222.17,191.264l0.517,0.26
		l-0.982,1.91l13.382,7.079l0.982-1.912l0.517,0.26l-5.787,10.9l-3.514-1.859l0.258-0.465c2.738,0.98,3.927-0.104,4.96-2.066
		l1.499-2.79l-6.2-3.255c-1.137,2.17-1.498,2.894,0.62,4.392l-0.258,0.465l-5.425-2.894l0.259-0.465
		c2.376,1.085,3.1,0.311,4.288-1.81l-6.665-3.513l-1.395,2.635c-1.499,2.843-1.653,3.979,1.24,6.2l-0.31,0.568l-3.875-2.43
		L222.17,191.264z M214.988,204.336l0.207-0.259l3.41,2.429l-0.258,0.361c-2.17-0.724-4.546-0.361-5.89,1.602
		c-1.188,1.705-1.24,4.134,0.517,5.374c1.188,0.826,1.912,0.93,3.617-0.155c0.775-0.517,3.978-2.894,4.392-3.048
		c1.55-0.672,3.048-0.259,4.185,0.518c0.827,0.567,1.343,1.291,1.705,2.428c0.361,1.137,0.31,2.584-0.775,4.082
		c-0.671,0.93-2.118,1.809-2.687,2.015l0.052,1.188l-0.207,0.259l-3.1-2.17l0.258-0.414c1.963,0.724,4.082,0.465,5.322-1.291
		c0.93-1.344,1.033-3.462-0.465-4.547c-3.307-2.325-6.458,6.717-11.883,2.894c-2.738-1.911-3.204-4.806-1.395-7.439
		c0.775-1.137,1.86-2.016,3.255-2.273L214.988,204.336z M221.033,224.021l-4.185,4.548l-0.414-0.361l1.292-1.396l-11.729-5.218
		l-0.051,0.053l6.303,11.107l1.499-1.653l0.413,0.361l-3.152,3.41l-0.413-0.361l1.188-1.292l-8.318-14.674l0.413-0.465l15.5,6.82
		l1.188-1.292L221.033,224.021z M71.973,236.369l0.258-0.465l4.237,2.272l-2.635,11.987h0.052l8.732-8.681l4.185,2.272l-0.258,0.465
		l-1.602-0.878l-7.13,13.123l1.602,0.879l-0.258,0.465l-5.27-2.842l0.258-0.517l1.602,0.878l6.975-12.865H82.67l-11.367,11.16
		l-0.517-0.258l3.307-15.5H74.04l-6.975,12.865l1.602,0.878l-0.258,0.465l-3.824-2.066l0.259-0.465l1.602,0.878l7.13-13.123
		L71.973,236.369z M82.306,259.155l0.207-0.519l1.963,0.725l5.012-14.055l-2.015-0.723l0.207-0.517l11.47,4.081l-1.344,3.669
		l-0.517-0.207c0.568-2.843-0.671-3.823-2.687-4.547l-2.945-1.033l-2.325,6.51c2.273,0.827,2.997,1.034,4.185-1.239l0.517,0.154
		l-2.067,5.735l-0.517-0.155c0.724-2.479-0.103-3.101-2.325-3.927l-2.48,6.976l2.739,0.981c2.997,1.085,4.133,1.085,5.89-2.066
		l0.568,0.206l-1.808,4.134L82.306,259.155z M102.767,249.699l-1.809-0.361l0.104-0.517l6.303,1.292
		c4.443,0.93,6.717,4.495,5.735,9.195c-0.568,2.738-2.015,4.548-3.72,5.787c-1.809,1.24-4.082,0.931-5.27,0.725l-6.252-1.292
		l0.104-0.568l1.808,0.361L102.767,249.699z M102.043,264.838l2.325,0.466c2.738,0.518,3.875-0.724,4.598-1.653
		c0.672-0.981,1.188-3.049,1.653-5.321c0.672-3.307,1.034-6.82-3.823-7.802l-1.757-0.361L102.043,264.838z M120.902,268.145
		l-6.407-0.567l0.051-0.568l2.067,0.207l1.395-14.88l-2.067-0.207l0.052-0.568l6.407,0.62l-0.052,0.568l-2.066-0.207l-1.395,14.881
		l2.066,0.206L120.902,268.145z M123.847,260.446c-0.052-4.236,2.635-8.422,6.769-8.475c4.134-0.052,6.975,3.979,7.027,8.269
		c0.051,4.235-2.635,8.473-6.769,8.523C126.74,268.765,123.898,264.684,123.847,260.446z M134.852,260.291
		c-0.104-4.96-0.982-7.802-4.289-7.75s-4.082,2.945-4.03,7.905c0.104,4.96,0.982,7.802,4.289,7.75
		C134.18,268.093,134.955,265.2,134.852,260.291z M141.052,267.887l-0.103-0.517l1.963-0.312l-2.222-14.775l-1.963,0.258
		l-0.104-0.568l6.458-0.98l0.104,0.567l-2.17,0.312l2.222,14.776l4.237-0.62c1.963-0.311,2.532-2.79,2.583-4.393l0.465-0.052
		l0.414,4.495L141.052,267.887z M154.847,265.82l-0.155-0.518l1.809-0.518l0.672-16.533l0.878-0.258l9.094,13.743l1.602-0.465
		l0.155,0.517l-5.838,1.653l-0.155-0.518l1.86-0.517l-3.048-4.6l-4.392,1.24l-0.207,5.528l1.963-0.568l0.155,0.518L154.847,265.82z
		 M161.357,257.191l-3.668-5.735h-0.052l-0.258,6.82L161.357,257.191z M167.299,245.772l-1.705,0.774l-0.207-0.517l4.237-1.912
		l11.005,7.751h0.052l-4.598-10.075l-1.705,0.774l-0.207-0.518l4.03-1.809l0.207,0.517l-1.705,0.775l6.562,14.415l-0.568,0.259
		l-14.57-10.282h-0.052l6.045,13.124l1.705-0.774l0.207,0.517l-4.03,1.86l-0.207-0.518l1.705-0.774L167.299,245.772z
		 M192.875,249.958l-5.58,3.307l-0.259-0.465l1.757-1.085l-7.646-12.813l-1.757,1.085l-0.258-0.465l5.528-3.308l0.31,0.465
		l-1.757,1.033l7.647,12.865l1.756-1.033L192.875,249.958z"/>
	<path fill="#727272" d="M305.044,80.645c-0.155,0.517-0.258,0.723-0.258,1.756v27.332c0,7.492,4.495,11.471,12.762,11.471
		c7.957,0,12.606-4.443,12.606-12.194V82.35c0-0.775-0.053-1.188-0.258-1.705h2.635c-0.259,0.517-0.259,0.826-0.259,1.705v26.659
		c0,9.404-5.891,14.622-16.481,14.726c-9.766,0-15.811-5.219-15.811-13.691V82.4c0-0.93-0.053-1.188-0.259-1.705L305.044,80.645z
		 M343.949,121.357V82.4c0-1.084,0-1.239-0.154-1.705h4.805c0.104,0.259,0.104,0.311,0.155,0.363
		c0.104,0.31,0.311,0.619,0.878,1.342l24.389,34.668V82.4c0-0.93-0.053-1.239-0.26-1.705h2.636
		c-0.154,0.466-0.259,0.775-0.259,1.705v38.957c0,0.931,0.053,1.188,0.361,1.705h-4.495c-0.052-0.567-0.104-0.723-0.878-1.705
		l-25.162-35.701v35.701c0,0.931,0,1.188,0.155,1.705h-2.532C343.847,122.546,343.949,122.236,343.949,121.357z M393.24,80.695
		c-0.155,0.518-0.155,0.775-0.155,1.705v38.957c0,1.033,0,1.188,0.155,1.705h-5.219c0.154-0.517,0.154-0.723,0.154-1.705V82.4
		c0-0.93,0-1.188-0.258-1.705H393.24z M403.936,80.695v0.311c0,0.361,0.053,0.723,0.311,1.395l12.297,35.754L429.15,82.4
		c0.36-0.93,0.36-1.188,0.36-1.705h2.895c-0.413,0.518-0.518,0.672-0.827,1.705l-13.691,38.957c-0.259,0.724-0.36,1.033-0.36,1.396
		c0,0.052,0.051,0.104,0.051,0.31h-4.753v-0.154c0-0.362-0.052-0.725-0.413-1.551L399.081,82.4c-0.312-0.93-0.466-1.239-0.827-1.705
		H403.936z M437.571,121.357V82.4c0-1.084,0-1.239-0.259-1.705l20.408-0.051v2.531c-1.137-0.154-1.757-0.154-2.531-0.154h-12.813
		v17.359h12.969c0.672,0,1.291-0.052,2.429-0.258v2.532c-0.826-0.104-1.551-0.155-2.429-0.155h-12.969v18.032h12.813
		c0.774,0,1.396-0.052,2.531-0.155v2.688h-20.408C437.52,122.546,437.571,122.288,437.571,121.357z M467.435,121.357V82.4
		c0-0.877,0-1.239-0.154-1.705l10.229-0.051c7.905,0,13.485,4.649,13.485,11.107c0,6.613-4.34,10.385-12.762,11.212l15.447,18.343
		c0.568,0.724,0.981,1.033,1.24,1.342c0.104,0.053,0.155,0.156,0.413,0.363h-6.665c-0.155-0.518-0.465-0.828-1.24-1.705
		l-15.188-18.188v18.238c0,0.982,0,1.138,0.153,1.705h-5.167C467.435,122.546,467.435,122.34,467.435,121.357z M472.24,101.208
		c0.773,0.052,1.343,0.052,1.704,0.052c7.751,0,11.884-3.255,11.884-9.197c0-4.029-2.17-7.336-5.787-8.474
		c-1.395-0.465-3.048-0.62-5.425-0.62h-2.376V101.208L472.24,101.208z M499.262,116.45c0.775,0.774,1.396,1.292,1.86,1.653
		c2.222,1.705,5.218,2.737,8.008,2.737c5.219,0,8.887-3.409,8.887-8.215c0-1.653-0.413-3.203-1.238-4.495
		c-1.24-1.756-2.843-2.893-8.37-5.631c-7.597-3.771-10.075-6.717-10.075-11.574c0-6.406,5.425-11.005,13.123-11.005
		c1.757,0,3.564,0.155,5.271,0.62c1.291,0.361,2.066,0.725,3.928,1.55l-1.188,3.41c-0.827-0.567-1.55-0.981-1.964-1.239
		c-2.066-1.086-4.598-1.81-6.768-1.81c-4.495,0-7.804,3.101-7.804,7.13c0,3.771,1.964,5.787,8.99,9.197
		c2.016,0.93,3.721,1.859,5.063,2.789c3.564,2.171,5.632,5.839,5.632,9.869c0,7.131-5.632,12.246-13.588,12.246
		c-2.273,0-4.65-0.414-6.82-1.188c-1.55-0.465-2.377-0.878-4.289-2.015L499.262,116.45z M536.876,80.695
		c-0.155,0.518-0.155,0.775-0.155,1.705v38.957c0,1.033,0,1.188,0.155,1.705h-5.219c0.155-0.517,0.155-0.723,0.155-1.705V82.4
		c0-0.93,0-1.188-0.26-1.705H536.876z M541.268,80.645h29.709v2.789c-0.879-0.104-1.239-0.104-2.531-0.104h-9.868v38.079
		c0,0.827,0.052,1.137,0.052,1.343c0.052,0.053,0.052,0.155,0.154,0.362h-5.373c0.155-0.568,0.259-0.775,0.259-1.705l0.051-38.079
		h-10.022c-0.258,0-0.568,0-1.653,0.052c-0.465,0.052-0.517,0.052-0.826,0.155v-2.895h0.05V80.645z M568.909,121.357l13.95-38.957
		c0.259-0.724,0.311-1.137,0.311-1.395v-0.311h4.495c0.051,0.518,0.103,0.775,0.413,1.705l14.415,38.957
		c0.36,0.931,0.465,1.24,0.827,1.705h-5.787c-0.052-0.517-0.104-0.723-0.413-1.705l-4.495-12.297h-16.999l-4.34,12.297
		c-0.413,0.879-0.465,1.138-0.465,1.603v0.104h-2.79C568.393,122.546,568.6,122.288,568.909,121.357z M576.401,106.891h15.396
		l-7.802-21.234L576.401,106.891z M584.048,67.004l4.134,8.938h-2.222l-6.354-8.938H584.048z M331.55,139.751
		c-0.672-0.62-1.188-1.137-1.602-1.396c-2.377-1.808-5.685-2.842-8.938-2.842c-9.816,0-16.068,7.854-16.068,20.202
		c0,12.142,6.511,20.356,16.172,20.356c2.377,0,4.754-0.518,6.769-1.705c1.292-0.672,2.118-1.291,3.669-3.1v4.907
		c-0.672,0.362-1.292,0.673-1.859,0.982c-2.377,1.136-5.838,1.808-9.248,1.808c-13.642,0-21.287-8.576-21.287-23.664
		c0-14.104,8.422-22.525,22.525-22.525c3.875,0,6.355,0.567,9.922,1.912v5.063L331.55,139.751L331.55,139.751z M335.477,176.591
		l14.726-41.179c0.259-0.725,0.311-1.188,0.311-1.499v-0.31h4.753c0.053,0.567,0.104,0.826,0.413,1.809l15.242,41.179
		c0.361,0.981,0.517,1.291,0.879,1.808h-6.098c-0.051-0.567-0.104-0.723-0.413-1.808l-4.753-13.021h-17.98l-4.599,13.021
		c-0.413,0.931-0.517,1.188-0.517,1.704v0.104h-2.945C334.908,177.83,335.063,177.624,335.477,176.591z M343.33,161.297h16.326
		l-8.268-22.477L343.33,161.297z M368.078,133.551h31.414v2.945c-0.93-0.104-1.292-0.104-2.688-0.104h-10.438v40.248
		c0,0.879,0.052,1.188,0.052,1.447c0.052,0.053,0.052,0.155,0.207,0.361h-5.684c0.207-0.62,0.259-0.826,0.259-1.809l0.052-40.25
		h-10.592c-0.259,0-0.62,0-1.757,0.053c-0.518,0.052-0.568,0.052-0.879,0.207v-3.101L368.078,133.551L368.078,133.551z
		 M404.607,133.551h31.412v2.945c-0.93-0.104-1.291-0.104-2.687-0.104h-10.438v40.248c0,0.879,0.053,1.188,0.053,1.447
		c0.052,0.053,0.052,0.155,0.206,0.361h-5.684c0.206-0.62,0.258-0.826,0.258-1.809l0.053-40.25H407.19c-0.259,0-0.62,0-1.758,0.053
		c-0.517,0.052-0.567,0.052-0.878,0.207v-3.101L404.607,133.551L404.607,133.551z M457.67,132.932
		c13.691,0,21.286,8.473,21.286,23.715c0,14.105-8.008,22.32-21.752,22.32c-13.588,0-21.338-8.525-21.338-23.043
		C435.866,141.146,443.616,132.932,457.67,132.932z M441.498,155.924c0,13.071,5.58,20.305,15.655,20.305
		c10.385,0,16.12-6.975,16.12-19.686c0-13.691-5.374-20.977-15.655-20.977C447.078,135.618,441.498,142.645,441.498,155.924z
		 M488.722,176.591v-41.179c0-0.93-0.052-1.24-0.259-1.809l0.259-0.053h5.013l0.259,0.053c-0.207,0.567-0.259,0.826-0.259,1.809
		v40.3h12.813h2.066c0.207,0,0.414,0,0.931-0.104v2.791h-20.822h-0.259C488.67,177.882,488.722,177.676,488.722,176.591z
		 M521.375,133.604c-0.206,0.567-0.206,0.826-0.206,1.809v41.179c0,1.136,0,1.239,0.206,1.808h-5.528
		c0.207-0.567,0.207-0.723,0.207-1.808v-41.179c0-0.982,0-1.24-0.259-1.809H521.375z M563.329,139.751
		c-0.672-0.62-1.188-1.137-1.603-1.396c-2.377-1.808-5.684-2.842-8.938-2.842c-9.816,0-16.068,7.854-16.068,20.202
		c0,12.142,6.563,20.356,16.172,20.356c2.377,0,4.754-0.518,6.77-1.705c1.292-0.672,2.118-1.291,3.668-3.1v4.907
		c-0.672,0.362-1.291,0.673-1.859,0.982c-2.377,1.136-5.839,1.808-9.249,1.808c-13.64,0-21.287-8.576-21.287-23.664
		c0-14.104,8.423-22.525,22.527-22.525c3.875,0,6.355,0.567,9.868,1.912L563.329,139.751L563.329,139.751z M567.256,176.591
		l14.777-41.179c0.258-0.725,0.31-1.188,0.31-1.499v-0.31h4.754c0.053,0.567,0.104,0.826,0.413,1.809l15.242,41.179
		c0.361,0.981,0.518,1.291,0.878,1.808h-6.097c-0.052-0.567-0.104-0.723-0.413-1.808l-4.754-13.021h-17.98l-4.598,13.021
		c-0.414,0.931-0.519,1.188-0.519,1.704v0.104h-2.943C566.688,177.83,566.843,177.624,567.256,176.591z M575.161,161.297h16.327
		l-8.269-22.477L575.161,161.297z M314.861,188.732c0-0.725,0-0.932-0.104-1.24h3.462c-0.104,0.31-0.154,0.517-0.154,1.24v29.036
		c0,0.672,0,0.879,0.104,1.188h-3.255v-3.824c-0.362,0.672-0.775,1.188-1.085,1.551c-1.292,1.603-3.824,2.688-6.148,2.688
		c-5.426,0-8.524-4.288-8.524-11.884c0-7.698,3.357-12.038,9.402-12.038c1.603,0,3.049,0.413,4.443,1.239
		c0.672,0.413,1.188,0.981,1.912,2.118v-10.074H314.861L314.861,188.732z M314.964,207.384l-0.154-5.012
		c-0.104-2.842-2.79-5.218-5.891-5.218c-4.185,0-6.51,3.72-6.51,10.437c0,6.2,2.118,9.507,6.097,9.507
		c2.997,0,5.787-2.479,6.252-5.477c0.104-0.775,0.154-1.705,0.154-2.945v-1.292H314.964L314.964,207.384z M328.191,206.195
		c-0.053,0.567-0.053,0.879-0.053,1.188c0,1.912,0.311,3.772,0.981,5.426c1.24,3.409,3.564,4.96,7.337,4.96
		c1.446,0,2.945-0.361,4.288-0.931c0.931-0.413,1.447-0.723,2.532-1.653l0.671,2.325c-0.567,0.361-1.033,0.568-1.343,0.725
		c-1.912,0.773-4.187,1.239-6.458,1.239c-7.285,0-11.265-4.341-11.265-12.091c0-7.285,4.081-11.985,10.333-11.985
		c5.839,0,9.56,4.029,9.817,10.798H328.191L328.191,206.195z M328.243,204.749h13.382c-0.466-5.012-2.738-7.75-6.407-7.75
		C331.395,196.999,328.76,199.944,328.243,204.749z M354.903,187.492c-0.104,0.31-0.104,0.62-0.104,1.24v29.036
		c0,0.774,0,0.826,0.104,1.188h-3.462c0.104-0.362,0.154-0.519,0.154-1.188v-29.036c0-0.673-0.052-0.932-0.154-1.24H354.903z
		 M372.625,214.308c0.568,0.568,0.981,0.931,1.344,1.188c1.603,1.188,3.721,1.963,5.684,1.963c3.721,0,6.354-2.428,6.354-5.89
		c0-1.188-0.31-2.273-0.878-3.203c-0.879-1.24-2.016-2.067-5.941-4.03c-5.426-2.687-7.183-4.806-7.183-8.267
		c0-4.547,3.875-7.854,9.353-7.854c1.239,0,2.584,0.154,3.771,0.465c0.93,0.259,1.446,0.518,2.79,1.085l-0.827,2.43
		c-0.567-0.414-1.085-0.725-1.395-0.879c-1.447-0.775-3.256-1.292-4.807-1.292c-3.202,0-5.579,2.222-5.579,5.063
		c0,2.688,1.396,4.082,6.406,6.563c1.446,0.671,2.636,1.343,3.616,1.963c2.584,1.55,4.03,4.134,4.03,7.025
		c0,5.063-4.03,8.732-9.714,8.732c-1.653,0-3.308-0.312-4.856-0.827c-1.085-0.31-1.705-0.62-3.048-1.395L372.625,214.308z
		 M396.547,197.516c0.62-0.36,1.137-0.62,1.447-0.774c2.015-0.826,4.392-1.396,6.406-1.396c2.429,0,5.012,1.033,6.045,2.479
		c0.414,0.62,0.724,1.809,0.724,3.256v13.123c0,1.964,0.517,2.997,1.446,2.997c0.414,0,0.981-0.362,1.705-0.827v1.964
		c-1.033,0.774-1.963,1.188-2.944,1.188c-0.568,0-1.137-0.26-1.653-0.568c-0.981-0.62-1.705-1.654-1.705-2.688
		c0-0.206,0.053-0.518,0.104-0.981c-0.671,0.827-0.93,1.137-1.446,1.602c-1.809,1.653-4.082,2.584-6.252,2.584
		c-3.72,0-6.458-2.79-6.458-6.563c0-3.72,2.325-6.251,6.872-7.491l3.979-1.085c2.324-0.62,3.203-1.55,3.203-3.462
		c0-2.118-1.859-3.668-4.547-3.668c-1.085,0-2.584,0.413-3.721,0.981c-0.93,0.465-1.446,0.773-2.583,1.757L396.547,197.516z
		 M408.069,204.542c-0.62,0.414-0.982,0.62-1.345,0.775c-0.826,0.31-2.324,0.826-4.34,1.498c-3.771,1.396-5.167,2.842-5.167,5.684
		c0,2.738,1.912,4.754,4.495,4.754c3.514,0,6.304-3.049,6.304-6.872L408.069,204.542z M434.522,199.221
		c-0.413-0.413-0.774-0.672-0.981-0.827c-1.344-0.825-3.049-1.395-4.599-1.395c-4.341,0-7.337,4.185-7.337,10.54
		c0,6.354,2.687,10.282,6.976,10.282c1.24,0,2.479-0.362,3.616-0.879c0.931-0.518,1.396-0.826,2.325-1.859v2.635
		c-2.273,1.344-3.875,1.81-6.511,1.81c-6.354,0-9.869-4.237-9.869-11.78c0-7.699,4.082-12.349,10.902-12.349
		c2.016,0,3.462,0.258,5.478,1.032V199.221L434.522,199.221z M440.31,217.77v-20.719c0-0.62-0.052-0.827-0.154-1.24h3.255v3.565
		c0.879-2.79,2.479-3.824,5.993-3.927v2.737c-0.361-0.052-0.568-0.052-0.774-0.052c-3.152,0-5.219,2.17-5.219,5.528v14.104
		c0,0.62,0.052,0.826,0.104,1.188h-3.409C440.31,218.647,440.31,218.492,440.31,217.77z M462.63,195.397
		c6.406,0,10.488,4.753,10.488,12.297c0,6.975-4.288,11.729-10.488,11.729c-6.304,0-10.488-4.754-10.488-12.039
		C452.141,200.099,456.223,195.397,462.63,195.397z M455.551,207.384c0,6.563,2.738,10.592,7.079,10.592
		c4.34,0,7.026-4.08,7.026-10.592c0-6.51-2.688-10.592-7.026-10.592C458.238,196.74,455.551,200.874,455.551,207.384z
		 M511.352,192.969c-0.465-0.413-0.773-0.773-1.085-0.93c-1.602-1.24-3.822-1.912-6.045-1.912c-6.612,0-10.798,5.271-10.798,13.641
		c0,8.163,4.393,13.691,10.901,13.691c1.602,0,3.203-0.31,4.547-1.137c0.878-0.465,1.446-0.878,2.479-2.118v3.307
		c-0.465,0.26-0.878,0.465-1.238,0.672c-1.604,0.775-3.928,1.24-6.252,1.24c-9.197,0-14.363-5.787-14.363-15.914
		c0-9.507,5.683-15.189,15.188-15.189c2.584,0,4.289,0.361,6.665,1.292L511.352,192.969L511.352,192.969z M520.91,195.862
		c-0.104,0.31-0.104,0.62-0.104,1.188V211c0,1.705,0.104,2.583,0.362,3.203c0.672,1.757,2.79,2.997,5.012,2.997
		c2.325,0,4.6-1.344,5.685-3.255c0.517-0.932,0.723-2.171,0.723-3.669v-13.176c0-0.465,0-0.774-0.103-1.085v-0.104h3.357
		c-0.104,0.31-0.104,0.517-0.104,1.24v20.614c0,0.672,0,0.774,0.104,1.188h-3.204v-3.721c-0.517,0.931-0.773,1.344-1.188,1.809
		c-1.603,1.498-4.029,2.531-6.354,2.531c-3.151,0-5.992-1.809-7.026-4.393c-0.311-0.723-0.466-1.858-0.466-3.307V197.15
		c0-0.62-0.052-0.932-0.104-1.24h3.41V195.862z M552.996,195.397c6.406,0,10.488,4.753,10.488,12.297
		c0,6.975-4.288,11.729-10.488,11.729c-6.304,0-10.488-4.754-10.488-12.039S546.641,195.397,552.996,195.397z M545.917,207.384
		c0,6.563,2.739,10.592,7.079,10.592s7.025-4.08,7.025-10.592c0-6.51-2.687-10.592-7.025-10.592
		C548.656,196.74,545.917,200.874,545.917,207.384z M570.305,217.77v-20.719c0-0.62-0.052-0.827-0.154-1.24h3.202v3.565
		c0.88-2.79,2.48-3.824,5.993-3.927v2.737c-0.36-0.052-0.567-0.052-0.773-0.052c-3.151,0-5.22,2.17-5.22,5.528v14.104
		c0,0.62,0.053,0.826,0.104,1.188h-3.41C570.305,218.647,570.305,218.492,570.305,217.77z M585.494,206.195
		c-0.051,0.567-0.051,0.879-0.051,1.188c0,1.912,0.31,3.772,0.98,5.426c1.24,3.409,3.564,4.96,7.337,4.96
		c1.446,0,2.944-0.361,4.288-0.931c0.93-0.413,1.446-0.723,2.531-1.653l0.672,2.325c-0.568,0.361-1.033,0.568-1.343,0.725
		c-1.912,0.773-4.187,1.239-6.459,1.239c-7.285,0-11.265-4.341-11.265-12.091c0-7.285,4.082-11.985,10.334-11.985
		c5.839,0,9.56,4.029,9.816,10.798H585.494L585.494,206.195z M585.546,204.749h13.382c-0.465-5.012-2.737-7.75-6.405-7.75
		C588.698,196.999,586.063,199.944,585.546,204.749z"/>
</g>
</svg>
